<svg width="78" height="78" viewBox="0 0 78 78" fill="none" xmlns="http://www.w3.org/2000/svg">
<path d="M0 0H78V78H0V0Z" fill="#4666AD"/>
<g clip-path="url(#clip0)">
<path d="M25.7538 29.5134L20.6357 15.6001H55.0666L50.5689 29.5134H25.7538Z" fill="#EE775F"/>
<path d="M39.2471 64.6872L67.9394 29.5132H50.5689L39.2471 64.6872Z" fill="#EE775F"/>
<path d="M55.3771 15.6001H55.0669H42.8145L50.5691 29.5134H67.9397L68.2499 29.2007L55.3771 15.6001Z" fill="white"/>
<path d="M50.5694 29.5132H25.7544L39.0925 64.8436L39.2476 64.6872L50.5694 29.5132Z" fill="#19093A"/>
<path d="M20.6361 15.6001L20.481 15.7564L10.3999 29.2007L10.555 29.5134H25.7542L33.5089 15.6001H20.6361Z" fill="white"/>
<path d="M10.5547 29.5132L38.9369 64.9999L39.092 64.8436L25.7539 29.5132H10.5547Z" fill="#EE775F"/>
</g>
<defs>
<clipPath id="clip0">
<rect width="57.85" height="49.4" fill="white" transform="translate(10.3999 15.6001)"/>
</clipPath>
</defs>
</svg>
