<svg width="917" height="1169" viewBox="0 0 917 1169" fill="none" xmlns="http://www.w3.org/2000/svg">
<g filter="url(#filter0_df)">
<path d="M464.896 401.715C534.652 527.858 652.74 750.495 780.16 854.5L813.66 990L754.417 904.758C678.091 797.492 506.448 547.986 430.482 408.093C354.517 268.2 314.175 30.2304 303.499 -71.2674L326.606 -75.55C343.638 30.9782 395.14 275.571 464.896 401.715Z" fill="url(#paint0_linear)"/>
<path d="M464.896 401.715C534.652 527.858 652.74 750.495 780.16 854.5L813.66 990L754.417 904.758C678.091 797.492 506.448 547.986 430.482 408.093C354.517 268.2 314.175 30.2304 303.499 -71.2674L326.606 -75.55C343.638 30.9782 395.14 275.571 464.896 401.715Z" fill="url(#paint1_linear)"/>
</g>
<g filter="url(#filter1_df)">
<path d="M428.772 420.826C376.054 318.567 300.933 66.7163 269.963 -46.4264L121 -18.8177C126.348 1.8061 169.122 109.68 297.437 376.184C425.753 642.687 624.009 846.836 707.097 915.597L821.16 1017.5L807.16 984.5L742.495 909.036C735.518 898.832 711.99 866.815 673.687 820.382C625.808 762.342 494.67 548.651 428.772 420.826Z" fill="url(#paint2_linear)"/>
<path d="M428.772 420.826C376.054 318.567 300.933 66.7163 269.963 -46.4264L121 -18.8177C126.348 1.8061 169.122 109.68 297.437 376.184C425.753 642.687 624.009 846.836 707.097 915.597L821.16 1017.5L807.16 984.5L742.495 909.036C735.518 898.832 711.99 866.815 673.687 820.382C625.808 762.342 494.67 548.651 428.772 420.826Z" fill="url(#paint3_linear)"/>
</g>
<g filter="url(#filter2_f)">
<path d="M395.599 315.91C358.233 224.05 322.656 30.2678 309.539 -55.1409L264.309 -46.7581C271.021 -14.1999 303.334 104.535 378.883 319.008C454.433 533.482 648.918 801.058 736.717 908.038L794.16 976.5L799.661 965L762.774 903.208C751.242 886.72 714.215 829.427 647.05 737.019C563.094 621.51 442.306 430.735 395.599 315.91Z" fill="url(#paint4_linear)"/>
<path d="M395.599 315.91C358.233 224.05 322.656 30.2678 309.539 -55.1409L264.309 -46.7581C271.021 -14.1999 303.334 104.535 378.883 319.008C454.433 533.482 648.918 801.058 736.717 908.038L794.16 976.5L799.661 965L762.774 903.208C751.242 886.72 714.215 829.427 647.05 737.019C563.094 621.51 442.306 430.735 395.599 315.91Z" fill="url(#paint5_linear)"/>
</g>
<g filter="url(#filter3_f)">
<path d="M305.979 -49.6522C315.005 42.0335 357.417 267.938 454.852 438.068C552.287 608.198 737.383 860.277 800.16 942" stroke="url(#paint6_linear)" stroke-width="15"/>
<path d="M305.979 -49.6522C315.005 42.0335 357.417 267.938 454.852 438.068C552.287 608.198 737.383 860.277 800.16 942" stroke="url(#paint7_linear)" stroke-width="15"/>
</g>
<g filter="url(#filter4_f)">
<path d="M797.162 995C732.812 938.632 499.312 727 395.588 546.32C303.671 386.204 174.314 103.292 121.126 -18.1504" stroke="#92ADEF" stroke-width="8"/>
<path d="M797.162 995C732.812 938.632 499.312 727 395.588 546.32C303.671 386.204 174.314 103.292 121.126 -18.1504" stroke="url(#paint8_linear)" stroke-width="8"/>
</g>
<rect x="115" y="175" width="753" height="537" rx="32" fill="url(#paint9_linear)"/>
<rect x="114.5" y="174.5" width="754" height="538" rx="32.5" stroke="url(#paint10_linear)" stroke-opacity="0.6"/>
<g style="mix-blend-mode:color" opacity="0.8">
<rect x="131" y="191" width="594" height="505" rx="42" fill="#18468B"/>
</g>
<g clip-path="url(#clip0)">
<rect x="122.008" y="188.787" width="1038.99" height="509.408" rx="42" fill="#073276"/>
<path fill-rule="evenodd" clip-rule="evenodd" d="M1121.66 698.195V685.082L1084.34 689.117H1075.26L1064.67 685.082L1068.7 662.89L1084.34 652.803L1079.29 635.15L1090.39 623.045L1097.45 601.862H1118.63V581.687L1158.48 569.582V449.544L1146.88 434.917L1144.86 423.821H1132.25L1146.88 400.116H1126.7L1124.69 396.585L1132.25 390.029L1118.63 383.472L1114.09 379.437L1108.55 385.489L1107.03 376.411H1097.45V379.437L1102.49 387.507L1091.4 400.116H1082.32L1071.22 410.203L1039.45 429.369L1036.93 413.229L1026.33 420.795L1010.19 427.352L997.081 436.935L982.959 437.943L976.402 436.935V431.387L986.489 418.777L990.02 410.203L1001.12 403.647L1010.19 410.203L1026.33 402.133L1021.79 387.507H1018.26L1016.75 370.358L1021.79 367.837H1029.86L1041.97 362.289L1036.93 348.166L1005.15 356.236V353.21L1008.18 349.68L1007.17 344.131L1001.12 337.07L1000.11 332.027L1008.18 323.453L994.559 311.348L986.489 318.913L990.02 323.453L965.81 345.645L962.28 340.097V333.54L960.262 325.47L952.192 327.992L949.671 321.939L944.123 325.47L939.583 333.54L937.061 332.027L939.583 325.47L934.54 318.913L930 323.453L924.957 312.861H937.061V304.791L940.592 303.782L939.583 298.739L926.974 301.765L922.435 289.156L962.28 286.13L957.236 278.06L962.28 273.016L957.236 267.468L965.81 261.92L962.28 258.894L970.854 254.859L978.924 258.894L982.959 254.859L988.507 244.772L997.081 250.824L1003.64 238.719V231.658L1018.26 207.449L1011.71 204.927L1001.12 191.813V189.796H972.871L972.367 192.318H968.332L966.819 195.848L973.88 199.883L983.967 208.457L982.959 210.979L976.402 208.457L973.88 212.997L968.332 219.553L964.802 221.067L961.271 228.128L972.367 236.702L930 267.468L924.957 258.894L928.992 255.363L925.965 249.815L922.435 250.824L915.374 244.772L912.348 238.719L913.861 236.702L907.808 228.128H902.26L904.782 219.553L912.348 221.067L924.957 202.909L920.922 199.883L926.974 189.796L893.182 191.813L884.608 208.457L881.581 214.51L888.642 219.553L890.66 228.128L887.634 246.789L881.581 249.815L875.529 246.789L871.998 244.772L868.468 246.789L860.902 250.824L856.363 246.789H850.311L847.789 244.772L850.311 231.658H847.789L843.754 242.25L839.719 238.719L836.693 233.171L838.206 210.979L810.97 204.422H804.414L782.221 210.979L738.846 225.101L736.324 216.023L746.916 209.97L750.447 210.979L747.925 202.405V197.866L740.864 194.84L739.855 190.3H701.019L706.567 196.353L695.975 198.874L694.966 201.396L691.436 204.422V209.97L687.401 212.997L681.349 214.005L672.27 203.414H667.731L665.209 193.831L657.643 196.353L652.6 198.874L646.043 199.883L648.565 190.3H126.043V698.195H1121.66ZM899.738 467.196L932.018 454.083L944.123 443.491V433.908L933.531 430.378L935.044 425.334L922.939 421.299L925.461 417.769C928.655 418.777 935.044 420.492 935.044 419.282C935.044 418.071 939.751 415.751 942.105 414.742L935.044 401.629L928.992 404.151L932.018 394.064L939.583 385.994L942.105 377.924L932.018 365.819L918.4 346.149L895.703 358.254L898.225 373.889L906.8 385.994V388.516L874.52 385.994L876.538 404.151L874.52 407.177L876.538 419.282L880.573 417.769L884.103 427.352L880.573 430.378V443.491L889.147 454.083L895.703 463.666L899.738 467.196Z" fill="#2B5DA2" fill-opacity="0.5"/>
<path d="M235.491 690.126V695.674L878.051 698.7V696.178L860.399 686.595L850.816 656.333L798.362 618.001V603.879L800.884 596.314L793.822 594.296L798.362 578.661L792.309 571.096L786.761 586.731H781.718L784.744 568.574L766.587 554.452L761.039 560L750.951 546.886V529.233L745.908 537.303L730.777 541.842L725.733 537.303H715.142L718.672 522.172L715.142 511.581L725.733 507.546L730.777 499.98L722.203 489.893L713.124 468.71L721.194 455.092L726.742 443.491L718.672 401.629L725.733 400.116L721.194 384.481L704.046 372.88V365.819L688.915 353.21L692.445 346.149L715.142 335.557L713.124 331.018L721.194 327.992L715.142 317.904L718.672 314.878L715.142 305.295L702.028 313.365L692.445 302.269L688.915 303.782L679.836 296.721L670.758 298.234C662.688 302.605 646.346 311.348 645.539 311.348C644.732 311.348 639.487 307.313 636.965 305.295L629.4 324.461L625.365 320.931L613.26 303.782L606.199 302.269L596.112 275.033L602.164 260.407V235.189L596.112 232.667L589.555 225.101V216.527L585.52 215.014L586.529 205.936L595.103 206.44L597.625 201.901L594.094 197.361L596.112 188.787H579.972L572.406 223.084L566.858 229.136L551.223 225.101L533.066 232.667C532.057 227.287 529.838 216.527 529.031 216.527C528.224 216.527 532.73 211.82 535.083 209.466L547.188 205.936V188.787H470.525H463.464L445.306 191.309L434.21 188.787H429.671L440.767 205.936V216.527H434.21L418.071 214.005L400.418 223.084L393.357 232.667L390.835 225.101L393.357 216.527L387.305 209.466L390.835 199.883L383.27 195.848L379.739 188.787H244.569L254.152 193.831L252.135 197.866L243.056 205.936L230.951 216.527L239.021 223.084C239.189 226.614 239.425 233.978 239.021 235.189C238.618 236.399 244.906 238.383 248.1 239.224L243.056 254.859L233.978 259.398L227.925 270.999L241.039 275.033V285.625L233.978 293.695L225.403 283.103L221.369 281.59L217.838 293.695L212.29 284.112L200.69 289.156L192.115 285.625L194.637 275.033L186.567 266.964L183.541 251.833L193.124 243.763L200.69 235.189C200.858 232.162 201.093 225.908 200.69 225.101C200.286 224.294 187.744 227.791 181.524 229.641L170.932 223.084L167.906 209.466L159.836 203.414L152.775 197.866H145.21L140.166 214.005L131.592 205.936L126.044 210.475L121 223.084L123.017 426.847V472.24L140.166 466.692L144.201 477.284L147.731 487.371L134.113 492.415V498.971H123.017V519.146L161.854 523.685L167.906 543.355L151.262 549.408L141.679 546.382L136.635 537.807L134.113 532.764L123.017 539.321V610.436L131.592 612.453L134.113 622.036L123.017 627.08L121 646.75H126.044L127.557 651.29L131.592 657.846L139.661 661.377L148.236 666.421L156.306 664.403V657.846L160.34 651.29L171.941 646.75L180.515 655.324L197.159 674.49L171.941 679.03H154.288L139.661 690.126L145.21 693.656L160.34 695.674H212.29L203.211 688.613L205.733 685.082L215.821 683.065L223.89 679.03L232.969 677.517H246.587L254.152 685.082L246.587 690.126L239.526 688.613L235.491 690.126Z" fill="#3A72B4" fill-opacity="0.5"/>
<path d="M300.553 688.108L287.439 696.682L595.606 697.187L615.277 681.551L592.076 666.925L597.119 658.35L595.606 648.768L599.137 645.741V636.663L603.172 635.15L604.18 628.593L624.859 610.436L642.512 594.801H659.661L684.879 604.888L691.436 602.366L702.027 593.287L697.488 588.244L691.436 577.148L687.401 560.504H675.8L669.748 550.416L667.73 529.738L649.573 491.91L621.833 476.779L623.346 473.249L632.425 469.214L634.947 464.17L642.512 461.648L640.999 454.587L636.46 453.074L631.416 459.631L626.877 452.065L623.346 453.074L620.825 443.491L616.79 439.961L613.259 432.395L602.667 434.413L599.137 427.351H592.58L588.041 416.76L589.05 415.751L591.571 419.282L600.65 421.299L607.711 416.76L605.694 413.734V407.681L615.277 404.655L612.25 394.063L603.676 395.072L589.05 399.107L580.475 382.463H578.962L575.432 370.358L578.962 365.819L582.493 360.271H588.041H594.598L603.676 352.706V351.192L596.111 348.671H588.041L580.475 351.192L588.041 335.053L589.05 331.018L596.111 325.974L594.598 321.939L589.05 318.913L582.493 323.452L580.475 328.496H575.432L569.379 326.983L565.849 325.974L564.336 335.053L557.779 329.505H552.735L550.718 333.54H547.187L541.639 331.018L534.578 333.54C534.242 332.699 533.267 331.018 532.056 331.018C530.846 331.018 535.923 329.337 538.613 328.496V325.974C534.41 326.983 525.802 329.101 524.995 329.505C524.188 329.908 523.314 332.363 522.978 333.54L528.021 335.053L522.978 337.575L518.943 331.018L521.465 318.913L518.943 310.843L523.987 304.286L533.569 302.773V297.73L543.152 292.686H555.257L556.77 289.156V269.485L524.995 272.512L526.004 264.442L516.925 260.911V257.381L510.873 253.85V262.424H507.847L502.299 253.85L506.334 243.763L497.76 239.223L489.69 236.197V251.833V269.485H484.646L481.116 266.459H474.559L472.541 263.433L481.116 262.424L479.602 255.867L468.002 250.319L458.923 253.85L470.019 275.033L457.41 281.59L446.819 286.634L432.696 258.894L424.627 264.442H415.044L401.93 251.833L395.878 253.85L388.312 260.911L381.756 263.433L375.703 267.972L364.103 264.442L356.033 260.911L351.998 253.85V239.223L343.424 243.763H338.38L331.824 239.223H322.241L316.188 248.806L312.658 245.276L300.553 251.833L295.005 263.433L296.518 275.033L292.987 281.59H288.448V296.217L282.9 298.738V303.782L277.352 308.826L274.83 318.409L265.752 313.869L256.169 316.391L231.455 336.566L228.429 351.192L224.394 355.227L217.837 351.192L212.289 346.653L214.307 334.044H210.776L208.759 338.583L203.211 331.522L197.158 335.053V341.609L190.097 346.653L194.636 355.227H187.071L178.497 357.245L170.427 364.306L173.957 372.88L164.879 370.863L162.357 372.88L167.401 378.932L162.357 384.985L176.479 403.142L170.427 415.247L164.879 411.716L162.357 402.133L156.305 400.62L147.226 395.072L142.182 408.69L145.713 415.247L140.669 423.821H127.051L122.008 427.856V473.249L138.652 468.205L147.226 484.345L144.2 489.893L134.617 491.91V498.467H123.017V519.146L163.87 523.685L166.896 541.338L147.226 549.912L140.669 546.382L134.617 534.277L123.017 541.338V609.427L130.582 613.462V625.567L127.051 631.115L130.582 643.724L147.226 634.141H160.34L176.479 656.837L194.636 646.246L200.184 632.124L190.601 602.366L201.697 595.809L234.481 590.766L246.586 631.115H255.664L260.204 656.837L239.525 662.89L242.047 680.543H248.603L253.647 688.108L265.752 677.516L270.291 686.091L280.883 677.516L287.439 683.064L300.553 680.543V688.108Z" fill="#609CDB"/>
<path d="M247.09 587.74L320.727 576.139V582.696L338.38 610.94V622.541L353.511 651.29L360.572 655.325L373.686 666.421L382.764 685.082L376.208 697.187H579.467L572.91 681.551L566.857 674.49L548.7 658.351L557.779 643.22L582.997 633.637H598.632L617.798 618.506L628.39 600.853H617.798L610.233 593.792L598.632 595.809L596.615 574.122L602.163 567.565L598.632 557.478L592.58 560.504L589.554 539.825V530.746L585.519 495.441V489.389L592.58 486.867V481.319L596.615 461.144V454.083L589.554 451.561L566.857 459.127L561.814 456.605L568.371 451.561L572.91 442.987L582.997 439.961V435.422L572.91 430.378L564.336 423.821L557.779 417.769L568.371 411.212L566.857 405.664H557.779L556.77 411.212L551.222 412.221L546.178 400.62L537.1 398.603L533.569 392.551L537.1 388.516L545.17 391.037L548.7 371.367L540.126 370.358L535.082 375.906L532.056 370.358H512.386L507.847 346.149L509.36 335.053L501.794 330.514L494.229 318.409L474.054 340.097L469.011 336.566L461.445 343.123L453.88 335.053L445.81 336.566L418.07 356.236C411.177 351.361 396.987 341.307 395.373 340.097C393.759 338.886 390.33 334.212 388.817 332.027L376.208 313.87L363.598 321.435L369.146 340.097V354.219H363.598V361.28L360.572 360.271L346.45 364.306L353.511 375.906L359.059 388.516L350.485 392.551L338.38 381.959L320.727 380.446L296.014 383.472V388.516L284.918 383.472L278.865 391.037L269.787 388.516L268.274 400.116H262.221L260.204 407.177L258.186 408.69L256.673 400.116L247.09 404.655L251.63 408.69L256.673 422.308L249.108 420.795V427.856L256.673 433.404V439.961L258.186 445.004L238.516 449.039H224.394L216.324 445.004V456.605L224.394 471.231L221.872 481.319V486.867L210.776 511.076L218.341 514.607L209.263 522.677L207.245 528.729L197.663 525.703L194.636 533.268L189.593 530.242L181.523 517.633L168.409 514.607H155.296V507.546L141.678 504.015L133.104 500.485H122.008L123.017 519.65L161.853 525.703L165.888 542.347L151.261 547.895L150.252 551.425L143.191 548.904L139.156 545.373V542.347H135.626L131.591 534.781L123.017 542.347L135.626 567.565L146.217 592.279H152.27L155.296 598.331L161.853 596.314L165.888 605.392L170.931 600.853L169.418 596.314L170.931 587.74L168.409 582.696L165.888 575.131L175.47 567.565L178.497 573.617L185.558 565.043L191.106 576.139L213.802 569.078L216.324 580.174H224.394V567.565L230.446 560.504H240.534H253.647L244.064 569.078L247.09 587.74Z" fill="#7EB3E8"/>
<path d="M331.319 596.314L339.389 615.984L336.867 622.036L357.042 653.307L365.616 656.838L375.703 668.438H390.33L397.391 661.881L429.166 664.403L452.871 658.351L473.55 668.438L479.602 677.012L485.655 669.951L487.168 658.351L503.812 636.663L513.899 641.202L515.412 631.115L518.943 633.132L524.995 619.01L518.943 612.958L531.048 545.373L533.065 528.225L531.048 527.72V518.137L524.995 519.146L522.978 516.624L515.412 509.563V503.511L522.978 501.998V497.458L529.535 496.45H533.065L535.587 492.415L537.1 477.788H527.517L526.004 472.745L518.943 475.266L518.438 472.745L524.995 466.188L518.943 463.666L521.465 454.587L518.438 453.074L515.412 446.518V441.474L518.438 437.943L516.421 431.387V423.821L496.751 420.795L478.594 426.343L476.576 435.422L471.533 437.439L468.506 429.874L457.41 432.9L444.297 416.256L444.801 410.203C443.624 408.522 441.271 404.958 441.271 404.151C441.271 403.344 436.9 407.177 434.714 409.195L430.679 406.168L424.627 410.203L414.035 412.725L411.513 415.751L404.452 412.725L399.913 402.133L390.33 392.551L383.269 385.489L381.756 393.055L386.295 394.064V400.116H379.738L379.234 403.647L373.181 405.16L381.251 410.203L370.66 411.212L369.651 403.647L367.633 402.638L364.607 404.151L357.042 400.62L351.998 400.116L346.955 389.02L341.911 384.481L342.415 388.011L329.806 395.072L328.797 392.551L321.232 395.577L325.771 405.16L333.841 408.186L326.78 410.203L325.771 408.186H322.241L323.754 422.308V423.821H322.241L313.666 431.891L317.701 436.43H315.684V441.474L310.136 443.996L315.684 452.57L313.666 462.657L319.214 470.727L336.867 466.188L345.441 488.884H338.38L321.232 499.476L322.241 490.902L313.666 484.849L311.649 481.319L317.701 477.788L315.684 472.24L303.075 479.806L297.022 494.937V502.502H302.57L305.092 505.528C303.579 506.537 300.452 508.655 300.049 509.059C299.645 509.462 303.243 518.305 305.092 522.677L296.014 528.225L301.057 535.79L304.588 534.781L306.101 537.303L311.649 535.286V531.251L313.666 527.72L327.284 573.113L321.232 576.644L331.319 596.314Z" fill="#96C5F1"/>
<path d="M338.885 624.054L340.903 630.106L346.955 627.584H353.512L364.608 636.663L372.173 643.724L382.261 641.707L384.278 635.15L375.2 636.159L372.173 631.115L382.261 623.549L384.278 627.584L396.887 623.549L407.479 628.593L414.036 627.584L413.027 615.48L421.097 616.993L422.61 608.419L422.106 602.366L428.158 600.349L435.723 593.288L454.889 588.244L475.568 588.748L495.238 589.757L507.343 594.296L520.961 597.323L547.692 602.366L549.205 598.836L548.701 596.314L552.736 591.27L556.267 590.766L559.293 593.288L565.849 591.775L563.832 576.139L559.797 568.574L556.771 564.539L551.727 557.478L551.223 551.425C550.046 551.593 547.591 551.93 547.188 551.93C546.784 551.93 548.365 543.524 549.205 539.321L542.649 537.303L540.127 542.851L535.588 546.886L530.04 544.869L527.518 551.93L516.926 546.886L517.43 542.851L509.865 542.347L508.856 539.825L507.343 540.834L506.334 539.321L504.317 539.825L501.795 531.755L498.265 533.773L496.247 531.251L496.751 529.738L498.265 530.746L500.786 528.729L498.265 520.659L493.221 521.668L490.699 519.65L488.177 520.659L489.186 523.181L480.107 526.207L478.09 519.65L488.177 516.12L487.169 511.076L492.212 509.563L490.195 505.528L495.238 501.998L470.02 490.902L461.446 492.415L460.942 485.858L463.463 484.345V480.814H456.907L455.394 479.806V476.779L451.359 475.266L450.35 477.284L445.811 475.266L445.306 480.814H441.776L441.271 483.84L448.837 486.867L451.359 483.84H455.394L455.898 488.38H452.872L453.376 490.397L449.846 490.902L450.35 493.928C446.987 494.264 440.162 494.936 439.758 494.936C439.355 494.936 438.581 488.548 438.245 485.354L435.219 485.858L432.193 477.788L424.627 475.266L423.114 464.17L420.088 459.127L416.557 449.544L400.418 449.039L399.409 444.5H397.392L396.383 453.074L402.94 452.57L406.975 467.701L405.461 468.71L402.94 467.701L401.931 474.258H398.905L397.392 475.266L398.905 477.284L397.392 478.797L393.861 476.275L390.331 478.797L387.809 474.258L380.748 477.284L374.191 465.179L370.66 467.701L368.138 463.161L367.13 458.622L371.669 456.1L370.66 454.587H368.138L362.59 445.509L355.529 449.039L359.06 454.587L357.042 456.1L358.051 461.144L354.016 466.188L355.529 469.718L353.512 472.24L341.407 465.179L337.372 466.188L353.008 523.685L357.042 522.677L361.582 532.259L359.06 534.781L361.582 541.842L363.599 540.329L364.608 542.851L359.06 545.373V546.886L353.008 549.408L358.051 565.043L351.999 567.565L353.512 571.096L344.433 572.609L345.442 576.139L342.92 577.148L343.929 579.165L348.468 577.652L350.486 583.2L344.433 584.209L342.92 582.192L333.842 584.713L334.346 587.235L331.824 588.748L332.833 590.766L341.407 588.748L340.903 593.288H342.92L343.929 595.809L341.912 598.331V604.384L343.929 603.879V606.401L346.955 607.914L341.912 609.427L341.407 619.01L338.885 620.019V624.054Z" fill="#C7E0F0"/>
<path d="M413.532 526.207L415.045 528.729L420.593 543.86L456.907 555.965L467.499 556.469L472.543 552.938L471.029 544.869L468.003 536.294L464.977 536.799L462.455 532.764L457.412 531.251L450.855 528.224L447.324 521.668L443.289 525.703L436.733 528.729L434.715 526.207L437.237 524.19L435.724 520.659L429.672 522.172L432.698 517.633L431.689 515.111L430.68 511.58L428.663 514.102L426.645 511.58L423.619 509.563V507.546L418.071 501.493L399.914 512.589L408.993 525.198L414.036 523.685L414.541 524.694L413.532 526.207Z" fill="#FAFCF7"/>
<path d="M402.941 576.644L409.498 581.183L413.028 578.661L421.602 570.591L424.124 572.104L426.142 571.6L432.698 573.113L436.229 570.591L444.803 566.556L448.334 572.104L456.908 568.574L449.847 555.965L458.421 556.469L459.43 547.895L456.403 545.877V543.355L449.847 536.799L435.725 543.86L433.203 541.842L430.177 543.86L428.159 540.834L431.185 533.773L429.168 530.746H426.646L423.62 528.225L420.089 530.242L413.532 527.72L411.011 529.738L413.028 532.764L411.515 533.773L405.463 525.703L402.941 526.711L399.41 522.677L398.402 523.685L392.854 525.703V529.233L395.88 530.746L401.932 537.807L400.419 540.329L402.941 545.877L400.419 548.903L397.393 551.425L394.871 553.947L399.41 562.521V565.043L402.941 576.644Z" fill="#FAFCF7"/>
<path d="M412.882 683.813L403.997 697.352C403.759 697.714 404.019 698.195 404.452 698.195H413.026C413.655 698.195 414.24 697.875 414.579 697.346L420.706 687.771C421.632 686.325 422.302 684.731 422.688 683.058L425.131 672.473L428.157 653.811L430.429 626.097C430.594 624.083 431.164 622.124 432.105 620.336L434.222 616.313C435.211 614.434 436.588 612.786 438.261 611.479L447.792 604.033C450.43 601.972 453.68 600.853 457.027 600.853H470.524H499.71C501.093 600.853 502.469 601.044 503.8 601.421L532.056 609.427L556.777 618.46C557.778 618.826 558.738 619.297 559.639 619.866L575.788 630.066C576.891 630.762 578.079 631.312 579.324 631.701L590.381 635.156C592.493 635.816 594.726 636.001 596.918 635.696L609.651 633.928C611.041 633.735 612.397 633.348 613.679 632.778L627.129 626.8C628.96 625.986 630.609 624.814 631.98 623.352L642.704 611.913C644.238 610.277 646.119 609.005 648.21 608.192L651.49 606.917C653.223 606.243 655.067 605.897 656.927 605.897H663.19C666.771 605.897 670.234 607.178 672.952 609.508L675.127 611.372C677.84 613.698 679.634 616.915 680.186 620.445L681.604 629.525C681.769 630.582 681.821 631.653 681.758 632.721L680.457 654.848C680.379 656.169 680.476 657.493 680.746 658.788L684.922 678.832C685.228 680.3 685.752 681.715 686.478 683.028L694.999 698.447C695.601 699.537 696.748 700.213 697.992 700.213H714.636C715.169 700.213 715.421 699.558 715.025 699.203C711.443 695.996 705.779 690.992 705.053 690.63C704.045 690.126 697.488 674.995 695.975 673.986C694.885 673.259 693.986 667.026 693.572 663.091C693.487 662.286 693.482 661.475 693.54 660.667L695.771 629.431C695.906 627.545 695.682 625.649 695.113 623.846L691.666 612.932C690.544 609.378 688.139 606.37 684.921 604.492L674.765 598.568C672.791 597.417 670.581 596.731 668.302 596.565L653.874 595.509C652.032 595.374 650.18 595.581 648.412 596.119L642.56 597.9C640.534 598.517 638.661 599.556 637.065 600.949L613.015 621.938C612.172 622.674 611.251 623.317 610.255 623.827C607.895 625.038 604.654 626.576 603.676 626.576C602.466 626.576 594.093 624.222 590.058 623.045L569.884 614.975L545.17 603.879L529.535 598.836L511.377 595.305L498.899 591.294C497.807 590.943 496.683 590.719 495.54 590.625C484.848 589.752 466.122 588.244 464.976 588.244C463.902 588.244 454.541 589.568 448.451 590.453C447.032 590.66 445.653 591.071 444.351 591.672L437.681 594.751C434.771 596.094 432.368 598.333 430.823 601.141L423.517 614.426C422.584 616.121 421.989 617.981 421.763 619.902L417.061 659.864L414.319 679.973C414.132 681.344 413.641 682.656 412.882 683.813Z" fill="#C6DCFA"/>
<path d="M760.95 691.223L754.691 697.482C754.427 697.745 754.614 698.196 754.986 698.196H774.152C774.779 698.196 775.361 697.87 775.689 697.336L778.228 693.211C778.866 692.174 779.288 691.018 779.466 689.813L780.84 680.542C781.084 678.894 780.865 677.21 780.209 675.678L775.161 663.899L766.574 644.917C765.921 643.475 765.661 641.886 765.818 640.311L766.826 630.233C766.999 628.504 767.668 626.863 768.754 625.506L773.113 620.057C774.435 618.404 776.299 617.269 778.375 616.854L779.769 616.575C783.125 615.904 786.57 617.194 788.661 619.903L798.866 633.132L815.455 656.173C816.478 657.594 817.893 658.686 819.528 659.314L835.543 665.474C836.306 665.767 837.106 665.955 837.92 666.033L856.124 667.767C857.281 667.877 858.449 667.762 859.563 667.428L877.365 662.087C877.822 661.95 878.285 661.85 878.758 661.787C884.005 661.091 893.539 659.864 894.695 659.864C895.906 659.864 915.374 662.554 924.957 663.899H954.993C955.479 663.899 955.964 663.859 956.444 663.781L979.596 660.001C980.155 659.91 980.705 659.766 981.238 659.571L998.502 653.255C1000.21 652.632 1001.68 651.509 1002.73 650.034L1018.12 628.498C1018.55 627.891 1018.91 627.233 1019.18 626.539L1026 609.064C1026.55 607.648 1027.45 606.395 1028.62 605.422L1034.44 600.57C1035.41 599.759 1036.55 599.163 1037.77 598.82L1050.47 595.248C1051.52 594.952 1052.61 594.85 1053.7 594.947L1073.76 596.73C1074.42 596.789 1075.09 596.774 1075.74 596.686L1089.12 594.903C1089.63 594.835 1090.13 594.723 1090.62 594.569L1114.84 586.972C1115.35 586.812 1115.85 586.606 1116.32 586.357L1125.62 581.488C1126 581.285 1126.41 581.11 1126.82 580.966L1134.27 578.359C1135.59 577.894 1137.01 577.747 1138.41 577.929L1146.52 578.987C1147.42 579.105 1148.3 579.38 1149.11 579.801L1159.6 585.257C1160.01 585.469 1160.5 585.173 1160.5 584.713V552.938C1160.5 552.362 1160.07 551.876 1159.49 551.805L1137.77 549.089C1136.79 548.966 1135.79 549.006 1134.83 549.206L1123.25 551.601C1122.2 551.818 1121.19 552.223 1120.28 552.794L1088.55 572.742C1087.11 573.643 1085.45 574.122 1083.76 574.122H1074.75L1061.65 572.314C1060.64 572.175 1059.62 572.208 1058.62 572.411L1033.89 577.449C1033.23 577.584 1032.58 577.794 1031.96 578.074L1023.17 582.07C1022.26 582.484 1021.42 583.048 1020.7 583.738L1012.63 591.402C1012.02 591.984 1011.49 592.649 1011.06 593.378L991.029 627.584L982.5 638.956C981.172 640.727 979.24 641.948 977.067 642.373C968.023 644.144 954.026 646.75 951.184 646.75H934.497C933.854 646.75 933.214 646.681 932.586 646.545L911.275 641.912C910.647 641.776 910.006 641.707 909.363 641.707H880.978C880.373 641.707 879.77 641.768 879.178 641.888L856.728 646.47C855.818 646.656 854.885 646.699 853.961 646.6L838.713 644.951C837.383 644.807 836.102 644.369 834.963 643.668L825.129 637.616C824.106 636.987 823.22 636.16 822.522 635.183L808.449 615.48L798.858 605.055C797.553 603.636 795.827 602.674 793.934 602.31L785.321 600.654C784.272 600.452 783.196 600.436 782.144 600.624C778.856 601.212 774.007 602.186 772.639 602.871C771.209 603.586 764.656 609.106 760.492 612.694C759.519 613.532 758.745 614.571 758.211 615.738L752.106 629.094C751.354 630.739 751.115 632.573 751.42 634.356L753.791 648.185C753.915 648.907 754.126 649.611 754.421 650.282L762.73 669.208C762.947 669.702 763.119 670.215 763.244 670.741L764.917 677.766C765.347 679.573 765.207 681.469 764.518 683.193L761.854 689.852C761.649 690.365 761.341 690.832 760.95 691.223Z" fill="#C6DCFA"/>
</g>
<rect x="457" y="191" width="395" height="506" rx="22" fill="url(#paint11_linear)" fill-opacity="0.5"/>
<g style="mix-blend-mode:screen">
<rect x="195" y="224" width="201" height="374" fill="url(#paint12_linear)"/>
</g>
<rect x="396.335" y="219.591" width="11.8182" height="11.8182" rx="2.95455" fill="white" stroke="#0D2270" stroke-width="1.18182"/>
<rect x="394.877" y="218.133" width="19.9902" height="11.9215" rx="4.41212" stroke="white" stroke-width="1.73333"/>
<g filter="url(#filter5_b)">
<rect x="244" y="474" width="250" height="307" rx="23.7156" fill="white" fill-opacity="0.2"/>
<rect x="244.539" y="474.539" width="248.922" height="305.922" rx="23.1766" stroke="white" stroke-width="1.07798"/>
</g>
<rect x="391" y="217" width="17" height="17" rx="4.63636" fill="white"/>
<rect x="391.773" y="217.773" width="15.4545" height="15.4545" rx="3.86364" stroke="#0D2270" stroke-opacity="0.5" stroke-width="1.54545"/>
<rect x="389.867" y="215.867" width="19.2667" height="19.2667" rx="5.7697" stroke="white" stroke-width="2.26667"/>
<g filter="url(#filter6_b)">
<rect x="346" y="90" width="185" height="347" rx="23.7156" fill="white" fill-opacity="0.2"/>
<rect x="346.539" y="90.539" width="183.922" height="345.922" rx="23.1766" stroke="white" stroke-width="1.07798"/>
</g>
<rect x="360" y="114" width="112.357" height="12.5714" rx="6.28571" fill="url(#paint13_linear)"/>
<rect x="471.572" y="304.143" width="36.9286" height="5.5" rx="2.75" fill="url(#paint14_linear)"/>
<rect x="389.857" y="304.143" width="36.9286" height="5.5" rx="2.75" fill="url(#paint15_linear)"/>
<circle cx="436.608" cy="214.178" r="60.7957" stroke="url(#paint16_linear)" stroke-opacity="0.4" stroke-width="6.28571"/>
<circle cx="436.348" cy="214.437" r="46.5669" stroke="url(#paint17_linear)" stroke-opacity="0.6" stroke-width="6.28571"/>
<path d="M468.695 180.94C463.261 175.692 456.631 171.845 449.378 169.731C442.126 167.617 434.467 167.299 427.064 168.805" stroke="#8AB4F5" stroke-width="6.28571" stroke-linecap="round"/>
<path d="M378.787 195.392C374.651 208.12 374.831 221.857 379.299 234.473C383.766 247.088 392.271 257.877 403.496 265.166C414.72 272.455 428.035 275.837 441.377 274.787C454.719 273.737 467.342 268.314 477.288 259.359C487.233 250.403 493.946 238.417 496.385 225.258C498.824 212.099 496.853 198.502 490.777 186.578C484.701 174.653 474.86 165.067 462.781 159.305C450.701 153.544 437.058 151.929 423.967 154.711" stroke="#E8F1FF" stroke-width="6.28571" stroke-linecap="round"/>
<rect x="466.877" y="179.253" width="3.62187" height="3.62187" rx="1.81094" fill="#3B6CB9"/>
<rect x="376.848" y="194.258" width="3.62187" height="3.62187" rx="1.81094" fill="#3B6CB9"/>
<circle cx="459.786" cy="305.714" r="6.28571" fill="#B7D3FE"/>
<circle cx="378.071" cy="305.714" r="6.28571" fill="#E8F1FF"/>
<rect x="360" y="337" width="94" height="16" rx="8" fill="url(#paint18_linear)"/>
<rect x="360" y="374" width="153" height="7" rx="3.5" fill="url(#paint19_linear)"/>
<rect x="360" y="406" width="153" height="7" rx="3.5" fill="url(#paint20_linear)"/>
<rect x="360" y="374" width="97" height="7" rx="3.5" fill="#07255E"/>
<rect x="360" y="406" width="128" height="7" rx="3.5" fill="#07255E"/>
<rect x="188" y="588" width="17" height="17" rx="4.63636" fill="white"/>
<rect x="188.773" y="588.773" width="15.4545" height="15.4545" rx="3.86364" stroke="#0D2270" stroke-opacity="0.5" stroke-width="1.54545"/>
<rect x="186.867" y="586.867" width="19.2667" height="19.2667" rx="5.7697" stroke="white" stroke-width="2.26667"/>
<rect x="188" y="217" width="17" height="17" rx="4.63636" fill="white"/>
<rect x="188.773" y="217.773" width="15.4545" height="15.4545" rx="3.86364" stroke="#0D2270" stroke-opacity="0.5" stroke-width="1.54545"/>
<rect x="186.867" y="215.867" width="19.2667" height="19.2667" rx="5.7697" stroke="white" stroke-width="2.26667"/>
<path d="M265.513 662.639L262 659.194V691.061H477V656.611L468.569 672.113L462.948 647.137L458.029 653.166L443.977 616.992L437.654 626.466L435.546 613.547L431.33 606.657L422.196 635.94L414.467 626.466L408.846 630.773L398.307 579.097L394.091 591.154H388.471V573.929L377.229 551.536L373.716 562.733H368.095L352.637 638.524L344.908 647.137L338.585 679.004H334.369L331.559 666.946L328.046 679.004L314.696 672.113L307.67 685.032L296.428 670.391L291.51 656.611L287.294 660.917L282.376 650.582L275.35 660.917L269.729 656.611L265.513 662.639Z" fill="url(#paint21_linear)"/>
<path d="M262 659.194L265.513 662.639L269.729 656.611L275.35 660.917L282.376 650.582L287.294 660.917L291.51 656.611L296.428 670.391L307.67 685.032L314.696 672.113L328.046 679.004L331.559 666.946L334.369 679.004H338.585L344.908 647.137L352.637 638.524L368.095 562.733H373.716L377.229 551.536L388.471 573.929V591.154H394.091L398.307 579.097L408.846 630.773L414.467 626.466L422.196 635.94L431.33 606.657L435.546 613.547L437.654 626.466L443.977 616.992L458.029 653.166L462.948 647.137L468.569 672.113L477 656.611" stroke="white" stroke-width="2.5" stroke-linecap="round"/>
<rect x="268" y="518" width="78" height="18" rx="9" fill="url(#paint22_linear)"/>
<rect x="262" y="711.732" width="40.4706" height="8.26816" rx="4.13408" fill="url(#paint23_linear)"/>
<rect x="319.332" y="711.732" width="40.4706" height="8.26816" rx="4.13408" fill="url(#paint24_linear)"/>
<rect x="375.824" y="711.732" width="41.3137" height="8.26816" rx="4.13408" fill="url(#paint25_linear)"/>
<rect x="433.156" y="711.732" width="40.4706" height="8.26816" rx="4.13408" fill="url(#paint26_linear)"/>
<rect x="130.5" y="190.5" width="722" height="506" rx="22.5" stroke="url(#paint27_linear)" stroke-opacity="0.8"/>
<defs>
<filter id="filter0_df" x="65.8105" y="-527.436" width="814.85" height="1584.47" filterUnits="userSpaceOnUse" color-interpolation-filters="sRGB">
<feFlood flood-opacity="0" result="BackgroundImageFix"/>
<feColorMatrix in="SourceAlpha" type="matrix" values="0 0 0 0 0 0 0 0 0 0 0 0 0 0 0 0 0 0 127 0"/>
<feOffset dx="-83" dy="-250"/>
<feGaussianBlur stdDeviation="75"/>
<feColorMatrix type="matrix" values="0 0 0 0 0.988235 0 0 0 0 0.505882 0 0 0 0 0.333333 0 0 0 1 0"/>
<feBlend mode="normal" in2="BackgroundImageFix" result="effect1_dropShadow"/>
<feBlend mode="normal" in="SourceGraphic" in2="effect1_dropShadow" result="shape"/>
<feGaussianBlur stdDeviation="5" result="effect2_foregroundBlur"/>
</filter>
<filter id="filter1_df" x="0" y="-249.859" width="900.16" height="1418.4" filterUnits="userSpaceOnUse" color-interpolation-filters="sRGB">
<feFlood flood-opacity="0" result="BackgroundImageFix"/>
<feColorMatrix in="SourceAlpha" type="matrix" values="0 0 0 0 0 0 0 0 0 0 0 0 0 0 0 0 0 0 127 0"/>
<feOffset dx="-21" dy="-40"/>
<feGaussianBlur stdDeviation="50"/>
<feColorMatrix type="matrix" values="0 0 0 0 0.248958 0 0 0 0 0.469348 0 0 0 0 0.995833 0 0 0 1 0"/>
<feBlend mode="normal" in2="BackgroundImageFix" result="effect1_dropShadow"/>
<feBlend mode="normal" in="SourceGraphic" in2="effect1_dropShadow" result="shape"/>
<feGaussianBlur stdDeviation="2.5" result="effect2_foregroundBlur"/>
</filter>
<filter id="filter2_f" x="254.309" y="-119.084" width="557.23" height="1166.54" filterUnits="userSpaceOnUse" color-interpolation-filters="sRGB">
<feFlood flood-opacity="0" result="BackgroundImageFix"/>
<feBlend mode="normal" in="SourceGraphic" in2="BackgroundImageFix" result="shape"/>
<feGaussianBlur stdDeviation="5" result="effect1_foregroundBlur"/>
</filter>
<filter id="filter3_f" x="285.113" y="-117.114" width="532.237" height="1130.07" filterUnits="userSpaceOnUse" color-interpolation-filters="sRGB">
<feFlood flood-opacity="0" result="BackgroundImageFix"/>
<feBlend mode="normal" in="SourceGraphic" in2="BackgroundImageFix" result="shape"/>
<feGaussianBlur stdDeviation="5" result="effect1_foregroundBlur"/>
</filter>
<filter id="filter4_f" x="107.131" y="-117.106" width="703.571" height="1212.74" filterUnits="userSpaceOnUse" color-interpolation-filters="sRGB">
<feFlood flood-opacity="0" result="BackgroundImageFix"/>
<feBlend mode="normal" in="SourceGraphic" in2="BackgroundImageFix" result="shape"/>
<feGaussianBlur stdDeviation="5" result="effect1_foregroundBlur"/>
</filter>
<filter id="filter5_b" x="233.22" y="463.22" width="271.56" height="328.56" filterUnits="userSpaceOnUse" color-interpolation-filters="sRGB">
<feFlood flood-opacity="0" result="BackgroundImageFix"/>
<feGaussianBlur in="BackgroundImage" stdDeviation="5.38991"/>
<feComposite in2="SourceAlpha" operator="in" result="effect1_backgroundBlur"/>
<feBlend mode="normal" in="SourceGraphic" in2="effect1_backgroundBlur" result="shape"/>
</filter>
<filter id="filter6_b" x="335.22" y="79.2202" width="206.56" height="368.56" filterUnits="userSpaceOnUse" color-interpolation-filters="sRGB">
<feFlood flood-opacity="0" result="BackgroundImageFix"/>
<feGaussianBlur in="BackgroundImage" stdDeviation="5.38991"/>
<feComposite in2="SourceAlpha" operator="in" result="effect1_backgroundBlur"/>
<feBlend mode="normal" in="SourceGraphic" in2="effect1_backgroundBlur" result="shape"/>
</filter>
<linearGradient id="paint0_linear" x1="585.819" y1="554.539" x2="556.381" y2="575.509" gradientUnits="userSpaceOnUse">
<stop stop-color="#6A94C6"/>
<stop offset="1" stop-color="#6C97C6"/>
</linearGradient>
<linearGradient id="paint1_linear" x1="759.672" y1="756.001" x2="611.172" y2="706.001" gradientUnits="userSpaceOnUse">
<stop stop-color="#050D1B"/>
<stop offset="1" stop-color="#123160" stop-opacity="0"/>
</linearGradient>
<linearGradient id="paint2_linear" x1="423.715" y1="404.517" x2="330.001" y2="445.339" gradientUnits="userSpaceOnUse">
<stop stop-color="#6096FF"/>
<stop offset="0.484375" stop-color="#4D7DDF"/>
<stop offset="1" stop-color="#A2B9F2"/>
</linearGradient>
<linearGradient id="paint3_linear" x1="801.66" y1="988.5" x2="503.66" y2="694.5" gradientUnits="userSpaceOnUse">
<stop stop-color="#061833"/>
<stop offset="1" stop-color="#081A3B" stop-opacity="0"/>
</linearGradient>
<linearGradient id="paint4_linear" x1="328.16" y1="124.001" x2="302.105" y2="129.505" gradientUnits="userSpaceOnUse">
<stop stop-color="#3874DA"/>
<stop offset="1" stop-color="#6096FE"/>
</linearGradient>
<linearGradient id="paint5_linear" x1="724.16" y1="948" x2="582.16" y2="684" gradientUnits="userSpaceOnUse">
<stop stop-color="#091A32"/>
<stop offset="1" stop-color="#0C264D" stop-opacity="0"/>
</linearGradient>
<linearGradient id="paint6_linear" x1="316.158" y1="201.001" x2="441.455" y2="-74.7611" gradientUnits="userSpaceOnUse">
<stop stop-color="#C2E2F4"/>
<stop offset="1" stop-color="#C2E2F4" stop-opacity="0"/>
</linearGradient>
<linearGradient id="paint7_linear" x1="710.16" y1="945" x2="487.66" y2="545" gradientUnits="userSpaceOnUse">
<stop stop-color="#0A1F41"/>
<stop offset="1" stop-color="#143261" stop-opacity="0"/>
</linearGradient>
<linearGradient id="paint8_linear" x1="715.662" y1="1059" x2="470.162" y2="744" gradientUnits="userSpaceOnUse">
<stop stop-color="#0F2A55"/>
<stop offset="1" stop-color="#112F5D" stop-opacity="0"/>
</linearGradient>
<linearGradient id="paint9_linear" x1="115" y1="175" x2="310.861" y2="403.914" gradientUnits="userSpaceOnUse">
<stop stop-color="#304FF3"/>
<stop offset="0.151042" stop-color="#6596D7"/>
<stop offset="0.255208" stop-color="white"/>
<stop offset="0.307292" stop-color="#80A9CC"/>
<stop offset="0.5625" stop-color="#001C58"/>
<stop offset="1" stop-color="#00010F"/>
</linearGradient>
<linearGradient id="paint10_linear" x1="161" y1="418" x2="771" y2="418" gradientUnits="userSpaceOnUse">
<stop stop-color="white"/>
<stop offset="1" stop-color="white" stop-opacity="0"/>
</linearGradient>
<linearGradient id="paint11_linear" x1="760.258" y1="495" x2="457" y2="495" gradientUnits="userSpaceOnUse">
<stop stop-color="#11294F"/>
<stop offset="1" stop-color="#10284E" stop-opacity="0"/>
</linearGradient>
<linearGradient id="paint12_linear" x1="295.5" y1="224" x2="377.5" y2="598" gradientUnits="userSpaceOnUse">
<stop stop-color="white" stop-opacity="0.76"/>
<stop offset="1" stop-color="white" stop-opacity="0.19"/>
</linearGradient>
<linearGradient id="paint13_linear" x1="416.179" y1="114" x2="416.179" y2="126.571" gradientUnits="userSpaceOnUse">
<stop stop-color="#4E79BD"/>
<stop offset="1" stop-color="#DDE5F2"/>
</linearGradient>
<linearGradient id="paint14_linear" x1="490.037" y1="304.143" x2="490.037" y2="309.643" gradientUnits="userSpaceOnUse">
<stop stop-color="#4E79BD"/>
<stop offset="1" stop-color="#DDE5F2" stop-opacity="0.72"/>
</linearGradient>
<linearGradient id="paint15_linear" x1="408.322" y1="304.143" x2="408.322" y2="309.643" gradientUnits="userSpaceOnUse">
<stop stop-color="#4E79BD"/>
<stop offset="1" stop-color="#DDE5F2" stop-opacity="0.72"/>
</linearGradient>
<linearGradient id="paint16_linear" x1="436.608" y1="153.383" x2="375.813" y2="442.615" gradientUnits="userSpaceOnUse">
<stop stop-color="#EFEFEF"/>
<stop offset="1" stop-color="#EFEFEF" stop-opacity="0"/>
</linearGradient>
<linearGradient id="paint17_linear" x1="436.348" y1="167.87" x2="422.464" y2="269.571" gradientUnits="userSpaceOnUse">
<stop stop-color="#EFEFEF" stop-opacity="0.35"/>
<stop offset="1" stop-color="#EFEFEF" stop-opacity="0.31"/>
</linearGradient>
<linearGradient id="paint18_linear" x1="407" y1="337" x2="407" y2="353" gradientUnits="userSpaceOnUse">
<stop stop-color="#4E79BD"/>
<stop offset="1" stop-color="#DDE5F2" stop-opacity="0.72"/>
</linearGradient>
<linearGradient id="paint19_linear" x1="436.5" y1="374" x2="436.5" y2="381" gradientUnits="userSpaceOnUse">
<stop stop-color="#4E79BD"/>
<stop offset="1" stop-color="#DDE5F2" stop-opacity="0.72"/>
</linearGradient>
<linearGradient id="paint20_linear" x1="436.5" y1="406" x2="436.5" y2="413" gradientUnits="userSpaceOnUse">
<stop stop-color="#4E79BD"/>
<stop offset="1" stop-color="#DDE5F2" stop-opacity="0.72"/>
</linearGradient>
<linearGradient id="paint21_linear" x1="369.5" y1="587.193" x2="369.5" y2="691.061" gradientUnits="userSpaceOnUse">
<stop stop-color="white" stop-opacity="0.92"/>
<stop offset="1" stop-color="white" stop-opacity="0"/>
</linearGradient>
<linearGradient id="paint22_linear" x1="307" y1="518" x2="307" y2="536" gradientUnits="userSpaceOnUse">
<stop stop-color="#4E79BD"/>
<stop offset="1" stop-color="#DDE5F2" stop-opacity="0.72"/>
</linearGradient>
<linearGradient id="paint23_linear" x1="282.235" y1="711.732" x2="282.235" y2="720" gradientUnits="userSpaceOnUse">
<stop stop-color="#4E79BD"/>
<stop offset="1" stop-color="#DDE5F2" stop-opacity="0.72"/>
</linearGradient>
<linearGradient id="paint24_linear" x1="339.567" y1="711.732" x2="339.567" y2="720" gradientUnits="userSpaceOnUse">
<stop stop-color="#4E79BD"/>
<stop offset="1" stop-color="#DDE5F2" stop-opacity="0.72"/>
</linearGradient>
<linearGradient id="paint25_linear" x1="396.481" y1="711.732" x2="396.481" y2="720" gradientUnits="userSpaceOnUse">
<stop stop-color="#4E79BD"/>
<stop offset="1" stop-color="#DDE5F2" stop-opacity="0.72"/>
</linearGradient>
<linearGradient id="paint26_linear" x1="453.392" y1="711.732" x2="453.392" y2="720" gradientUnits="userSpaceOnUse">
<stop stop-color="#4E79BD"/>
<stop offset="1" stop-color="#DDE5F2" stop-opacity="0.72"/>
</linearGradient>
<linearGradient id="paint27_linear" x1="175" y1="404" x2="691" y2="404" gradientUnits="userSpaceOnUse">
<stop stop-color="white"/>
<stop offset="1" stop-color="white" stop-opacity="0"/>
</linearGradient>
<clipPath id="clip0">
<rect x="131" y="191" width="721" height="505" rx="22" fill="white"/>
</clipPath>
</defs>
</svg>
