<svg width="162" height="16" viewBox="0 0 162 16" fill="none" xmlns="http://www.w3.org/2000/svg">
<path fill-rule="evenodd" clip-rule="evenodd" d="M7.30075 4.24968C7.30075 3.10729 6.36515 2.07153 4.90807 2.07153C3.45098 2.07153 2.51538 2.92451 2.51538 4.03644C2.51538 5.28545 3.08288 6.00134 4.70868 6.48876L6.38049 6.96095C8.35905 7.49406 9.9235 8.804 9.9235 11.2868C9.9235 13.4649 8.25169 15.7497 5.01543 15.7497C2.17795 15.7497 0.0460131 13.6173 0 11.2868L0.107364 11.0735L1.97856 10.449L2.19329 10.6623C2.14728 12.5206 3.57369 13.5716 5.01543 13.5716C6.7946 13.5716 7.7302 12.6424 7.7302 11.2868C7.7302 9.83977 6.56454 9.23049 5.53691 8.98678C5.03077 8.86493 4.38658 8.68215 3.8651 8.5146C1.88654 7.87486 0.322092 6.51923 0.322092 4.03644C0.322092 1.75166 2.28532 0 4.89273 0C7.50014 0 9.50938 1.76689 9.50938 4.24968L9.29465 4.46293H7.51548L7.30075 4.24968Z" fill="white"/>
<path fill-rule="evenodd" clip-rule="evenodd" d="M13.0371 0.534291L13.2518 0.321045H22.2244L22.4391 0.534291V2.17933L22.2244 2.39258H18.8501V15.2483L18.6354 15.4463H16.8409L16.6415 15.2483V2.39258H13.2518L13.0371 2.17933V0.534291Z" fill="white"/>
<path fill-rule="evenodd" clip-rule="evenodd" d="M30.8899 6.74889C32.1476 6.74889 33.2979 6.01776 33.2979 4.57073C33.2979 3.12371 32.1476 2.39258 30.8899 2.39258H28.1751V6.74889H30.8899ZM25.9818 0.534291L26.1966 0.321045H30.7825C33.2826 0.321045 35.4759 1.87469 35.4759 4.57073C35.4759 7.08399 33.2826 8.60718 30.9666 8.69857L35.7826 15.035V15.4463H33.482L33.2673 15.233L28.4666 8.69857H28.1598V15.233L27.9451 15.4463H26.1659L25.9512 15.233V0.519059L25.9818 0.534291Z" fill="white"/>
<path fill-rule="evenodd" clip-rule="evenodd" d="M38.7129 0.534291L38.9276 0.321045H47.6855L47.9002 0.534291V2.17933L47.6855 2.39258H40.9062V6.74889H47.4861L47.6855 6.9469V8.60718L47.4861 8.82042H40.9062V13.3747H47.6855L47.9002 13.588V15.2483L47.6855 15.4463H38.9276L38.7129 15.2483V0.534291Z" fill="white"/>
<path fill-rule="evenodd" clip-rule="evenodd" d="M51.4434 0.534291L51.6581 0.321045H53.4373L53.6367 0.534291V13.3747H60.4159L60.6306 13.588V15.2483L60.4159 15.4463H51.6581L51.4434 15.2483V0.534291Z" fill="white"/>
<path fill-rule="evenodd" clip-rule="evenodd" d="M73.6813 0.321045L73.7733 0.534291L67.9296 7.67803L73.988 15.2483L73.8807 15.4463H71.488L71.2732 15.2483L66.3652 9.03367V15.2483L66.1658 15.4463H64.3866L64.1719 15.2483V0.534291L64.3866 0.321045H66.1811L66.3652 0.534291V6.53564L71.0585 0.534291L71.2732 0.321045H73.6813Z" fill="white"/>
<path fill-rule="evenodd" clip-rule="evenodd" d="M79.6149 9.64182H83.1579L81.3787 3.01596L79.5995 9.64182H79.6149ZM80.2437 0.304688H82.5444L82.7591 0.517934L86.931 15.2319L86.8236 15.4452H84.8451L84.6303 15.2319L83.7254 11.7134H79.0474L78.1425 15.2319L77.9277 15.4452H75.9492L75.8418 15.2319L80.0137 0.517934L80.2437 0.304688Z" fill="white"/>
<path fill-rule="evenodd" clip-rule="evenodd" d="M111.873 0.318848L111.98 0.532094L106.137 7.67583L112.18 15.2461L112.088 15.4441H109.68L109.48 15.2461L104.572 9.03147V15.2461L104.357 15.4441H102.578L102.379 15.2461V0.532094L102.578 0.318848H104.373L104.572 0.532094V6.53344L109.266 0.532094L109.48 0.318848H111.873Z" fill="white"/>
<path fill-rule="evenodd" clip-rule="evenodd" d="M119.91 13.3726C121.168 13.3726 122.318 12.6414 122.318 11.0878C122.318 9.53414 121.168 8.80301 119.91 8.80301H117.303V13.3573H119.91V13.3726ZM115.324 0.318848H123.054L123.269 0.532094V2.19237L123.054 2.40562H117.318V6.76193H119.818C122.533 6.76193 124.511 8.52883 124.511 11.1183C124.511 13.7077 122.533 15.4746 119.818 15.4746H115.324L115.109 15.2613V0.547326L115.324 0.33408V0.318848Z" fill="white"/>
<path fill-rule="evenodd" clip-rule="evenodd" d="M139.111 0.304688V2.80269L141.611 0.304688H139.111Z" fill="white"/>
<path fill-rule="evenodd" clip-rule="evenodd" d="M149.25 0.304688L139.111 10.3882V12.9167L151.796 0.304688H149.25Z" fill="white"/>
<path fill-rule="evenodd" clip-rule="evenodd" d="M159.437 0.304688L144.191 15.4452H146.737L161.983 0.304688H159.437Z" fill="white"/>
<path fill-rule="evenodd" clip-rule="evenodd" d="M154.375 15.4454H156.921L161.998 10.4189V7.89038L154.375 15.4454Z" fill="white"/>
<path fill-rule="evenodd" clip-rule="evenodd" d="M144.173 0.304688L139.111 5.33119V7.85967L146.704 0.304688H144.173Z" fill="white"/>
<path fill-rule="evenodd" clip-rule="evenodd" d="M154.342 0.304688L139.111 15.4452H141.642L156.888 0.304688H154.342Z" fill="white"/>
<path fill-rule="evenodd" clip-rule="evenodd" d="M149.283 15.4457H151.829L161.998 5.36223V2.83374L149.283 15.4457Z" fill="white"/>
<path fill-rule="evenodd" clip-rule="evenodd" d="M159.465 15.4458H161.996V12.9478L159.465 15.4458Z" fill="white"/>
<path fill-rule="evenodd" clip-rule="evenodd" d="M159.484 0.304688L162 2.78746V0.304688H159.484Z" fill="white"/>
<path fill-rule="evenodd" clip-rule="evenodd" d="M150.557 0.304688V1.5537L161.999 12.9014V10.3729L151.845 0.304688H150.557Z" fill="white"/>
<path fill-rule="evenodd" clip-rule="evenodd" d="M150.557 11.6689L154.376 15.4464H156.922L150.557 9.14038V11.6689Z" fill="white"/>
<path fill-rule="evenodd" clip-rule="evenodd" d="M154.389 0.304688L161.996 7.84446V5.3312L156.935 0.304688H154.389Z" fill="white"/>
<path fill-rule="evenodd" clip-rule="evenodd" d="M150.557 6.61101L159.468 15.4455H161.999V15.4302L150.557 4.08252V6.61101Z" fill="white"/>
</svg>
