<svg width="164" height="16" viewBox="0 0 164 16" fill="none" xmlns="http://www.w3.org/2000/svg">
<path fill-rule="evenodd" clip-rule="evenodd" d="M7.35238 4.27974C7.35238 3.12927 6.41016 2.08618 4.94278 2.08618C3.47539 2.08618 2.53317 2.94519 2.53317 4.06498C2.53317 5.32283 3.10468 6.04378 4.74198 6.53465L6.42561 7.01018C8.41817 7.54706 9.99367 8.86626 9.99367 11.3666C9.99367 13.5602 8.31004 15.8611 5.0509 15.8611C2.19336 15.8611 0.0463385 13.7136 0 11.3666L0.108123 11.1519L1.99256 10.5229L2.2088 10.7377C2.16246 12.6091 3.59896 13.6675 5.0509 13.6675C6.84266 13.6675 7.78487 12.7318 7.78487 11.3666C7.78487 9.90935 6.61096 9.29577 5.57607 9.05034C5.06635 8.92762 4.41761 8.74355 3.89244 8.57481C1.89988 7.93055 0.32437 6.56533 0.32437 4.06498C0.32437 1.76405 2.30148 0 4.92733 0C7.55318 0 9.57663 1.77939 9.57663 4.27974L9.36038 4.49449H7.56863L7.35238 4.27974Z" fill="white"/>
<path fill-rule="evenodd" clip-rule="evenodd" d="M13.1328 0.537508L13.3491 0.322754H22.3851L22.6013 0.537508V2.19418L22.3851 2.40894H18.9869V15.3555L18.7707 15.555H16.9635L16.7627 15.3555V2.40894H13.3491L13.1328 2.19418V0.537508Z" fill="white"/>
<path fill-rule="evenodd" clip-rule="evenodd" d="M31.1084 6.79606C32.375 6.79606 33.5335 6.05976 33.5335 4.6025C33.5335 3.14524 32.375 2.40894 31.1084 2.40894H28.3745V6.79606H31.1084ZM26.1657 0.537508L26.3819 0.322754H31.0003C33.518 0.322754 35.7268 1.88739 35.7268 4.6025C35.7268 7.13353 33.518 8.66749 31.1857 8.75952L36.0358 15.1408V15.555H33.7188L33.5026 15.3402L28.6679 8.75952H28.359V15.3402L28.1428 15.555H26.351L26.1348 15.3402V0.522168L26.1657 0.537508Z" fill="white"/>
<path fill-rule="evenodd" clip-rule="evenodd" d="M38.9863 0.537508L39.2026 0.322754H48.0224L48.2386 0.537508V2.19418L48.0224 2.40894H41.1951V6.79606H47.8216L48.0224 6.99547V8.66749L47.8216 8.88224H41.1951V13.4688H48.0224L48.2386 13.6835V15.3555L48.0224 15.555H39.2026L38.9863 15.3555V0.537508Z" fill="white"/>
<path fill-rule="evenodd" clip-rule="evenodd" d="M51.8105 0.537508L52.0268 0.322754H53.8186L54.0194 0.537508V13.4688H60.8466L61.0628 13.6835V15.3555L60.8466 15.555H52.0268L51.8105 15.3555V0.537508Z" fill="white"/>
<path fill-rule="evenodd" clip-rule="evenodd" d="M74.2016 0.322754L74.2943 0.537508L68.4093 7.73177L74.5106 15.3555L74.4024 15.555H71.9928L71.7766 15.3555L66.8338 9.09699V15.3555L66.633 15.555H64.8412L64.625 15.3555V0.537508L64.8412 0.322754H66.6485L66.8338 0.537508V6.5813L71.5603 0.537508L71.7766 0.322754H74.2016Z" fill="white"/>
<path fill-rule="evenodd" clip-rule="evenodd" d="M80.1806 9.7103H83.7487L81.9569 3.03758L80.1652 9.7103H80.1806ZM80.8139 0.307129H83.1309L83.3471 0.521883L87.5485 15.3399L87.4404 15.5547H85.4478L85.2315 15.3399L84.3202 11.7965H79.6091L78.6978 15.3399L78.4815 15.5547H76.489L76.3809 15.3399L80.5822 0.521883L80.8139 0.307129Z" fill="white"/>
<path fill-rule="evenodd" clip-rule="evenodd" d="M112.663 0.320801L112.771 0.535555L106.886 7.72981L112.972 15.3536L112.879 15.553H110.454L110.253 15.3536L105.31 9.09503V15.3536L105.094 15.553H103.302L103.102 15.3536V0.535555L103.302 0.320801H105.11L105.31 0.535555V6.57935L110.037 0.535555L110.253 0.320801H112.663Z" fill="white"/>
<path fill-rule="evenodd" clip-rule="evenodd" d="M120.76 13.4668C122.027 13.4668 123.185 12.7305 123.185 11.1659C123.185 9.60126 122.027 8.86496 120.76 8.86496H118.135V13.4515H120.76V13.4668ZM116.142 0.320801H123.927L124.143 0.535555V2.20757L123.927 2.42233H118.15V6.80945H120.668C123.402 6.80945 125.394 8.58885 125.394 11.1966C125.394 13.8043 123.402 15.5837 120.668 15.5837H116.142L115.926 15.369V0.550895L116.142 0.33614V0.320801Z" fill="white"/>
<path fill-rule="evenodd" clip-rule="evenodd" d="M140.1 0.307129V2.8228L142.617 0.307129H140.1Z" fill="white"/>
<path fill-rule="evenodd" clip-rule="evenodd" d="M150.31 0.307129L140.1 10.4619V13.0083L152.874 0.307129H150.31Z" fill="white"/>
<path fill-rule="evenodd" clip-rule="evenodd" d="M160.566 0.307129L145.213 15.5547H147.777L163.13 0.307129H160.566Z" fill="white"/>
<path fill-rule="evenodd" clip-rule="evenodd" d="M155.467 15.5537H158.031L163.144 10.4917V7.94531L155.467 15.5537Z" fill="white"/>
<path fill-rule="evenodd" clip-rule="evenodd" d="M145.197 0.307129L140.1 5.36918V7.91554L147.745 0.307129H145.197Z" fill="white"/>
<path fill-rule="evenodd" clip-rule="evenodd" d="M155.438 0.307129L140.1 15.5547H142.648L158.002 0.307129H155.438Z" fill="white"/>
<path fill-rule="evenodd" clip-rule="evenodd" d="M150.34 15.5542H152.904L163.145 5.3994V2.85303L150.34 15.5542Z" fill="white"/>
<path fill-rule="evenodd" clip-rule="evenodd" d="M160.594 15.5543H163.142V13.0386L160.594 15.5543Z" fill="white"/>
<path fill-rule="evenodd" clip-rule="evenodd" d="M160.611 0.307129L163.145 2.80746V0.307129H160.611Z" fill="white"/>
<path fill-rule="evenodd" clip-rule="evenodd" d="M151.619 0.307129V1.56497L163.142 12.993V10.4466L152.917 0.307129H151.619Z" fill="white"/>
<path fill-rule="evenodd" clip-rule="evenodd" d="M151.619 11.751L155.465 15.5552H158.029L151.619 9.20459V11.751Z" fill="white"/>
<path fill-rule="evenodd" clip-rule="evenodd" d="M155.484 0.307129L163.146 7.90023V5.36919L158.048 0.307129H155.484Z" fill="white"/>
<path fill-rule="evenodd" clip-rule="evenodd" d="M151.619 6.6577L160.593 15.5546H163.142V15.5393L151.619 4.11133V6.6577Z" fill="white"/>
</svg>
