<svg width="694" height="982" viewBox="0 0 694 982" fill="none" xmlns="http://www.w3.org/2000/svg">
<g clip-path="url(#clip0)">
<g filter="url(#filter0_d)">
<path d="M454.235 393.714C523.991 519.858 796.271 759.404 923.691 863.408L743.756 896.758C667.43 789.491 495.787 539.986 419.821 400.093C343.856 260.199 303.514 22.2304 292.839 -79.2673L315.945 -83.5499C332.977 22.9784 384.479 267.571 454.235 393.714Z" fill="url(#paint0_linear)"/>
</g>
<g filter="url(#filter1_d)">
<path d="M418.111 412.826C365.393 310.567 290.273 58.7163 259.302 -54.4265L110.339 -26.8178C115.687 -6.19391 158.462 101.68 286.777 368.183C415.092 634.687 613.348 838.835 696.437 907.597L731.834 901.036C724.858 890.832 701.329 858.815 663.026 812.382C615.147 754.341 484.009 540.651 418.111 412.826Z" fill="url(#paint1_linear)"/>
</g>
<g filter="url(#filter2_f)">
<path d="M384.938 307.91C347.572 216.05 311.996 22.2675 298.879 -63.1413L253.649 -54.7584C260.361 -22.2003 292.673 96.5345 368.223 311.008C443.773 525.481 638.258 793.058 726.057 900.037L752.113 895.208C740.582 878.719 703.555 821.427 636.39 729.019C552.434 613.509 431.646 422.735 384.938 307.91Z" fill="url(#paint2_linear)"/>
</g>
<g filter="url(#filter3_f)">
<path d="M295.319 -57.6524C304.345 34.0333 346.756 259.937 444.192 430.068C541.627 600.198 691.541 806.178 754.318 887.901" stroke="url(#paint3_linear)" stroke-width="15"/>
</g>
<g filter="url(#filter4_f)">
<path d="M692.875 907.567C628.525 851.2 476.846 698.435 384.928 538.32C293.01 378.204 163.654 95.2911 110.466 -26.1509" stroke="#92ADEF" stroke-width="8"/>
</g>
<rect x="107" y="175" width="709" height="537" rx="51" fill="url(#paint4_linear)"/>
<rect x="106.5" y="174.5" width="710" height="538" rx="51.5" stroke="white" stroke-opacity="0.3"/>
<g style="mix-blend-mode:color" opacity="0.8">
<rect x="123" y="191" width="594" height="505" rx="42" fill="#18468B"/>
</g>
<g clip-path="url(#clip1)">
<rect x="114.008" y="188.787" width="1038.99" height="509.408" rx="42" fill="#073276"/>
<path fill-rule="evenodd" clip-rule="evenodd" d="M1113.66 698.195V685.082L1076.34 689.117H1067.26L1056.67 685.082L1060.7 662.89L1076.34 652.803L1071.29 635.15L1082.39 623.045L1089.45 601.862H1110.63V581.687L1150.48 569.582V449.544L1138.88 434.917L1136.86 423.821H1124.25L1138.88 400.116H1118.7L1116.69 396.585L1124.25 390.029L1110.63 383.472L1106.09 379.437L1100.55 385.489L1099.03 376.411H1089.45V379.437L1094.49 387.507L1083.4 400.116H1074.32L1063.22 410.203L1031.45 429.369L1028.93 413.229L1018.33 420.795L1002.19 427.352L989.081 436.935L974.959 437.943L968.402 436.935V431.387L978.489 418.777L982.02 410.203L993.116 403.647L1002.19 410.203L1018.33 402.133L1013.79 387.507H1010.26L1008.75 370.358L1013.79 367.837H1021.86L1033.97 362.289L1028.93 348.166L997.151 356.236V353.21L1000.18 349.68L999.168 344.131L993.116 337.07L992.107 332.027L1000.18 323.453L986.559 311.348L978.489 318.913L982.02 323.453L957.81 345.645L954.28 340.097V333.54L952.262 325.47L944.192 327.992L941.671 321.939L936.123 325.47L931.583 333.54L929.061 332.027L931.583 325.47L926.54 318.913L922 323.453L916.957 312.861H929.061V304.791L932.592 303.782L931.583 298.739L918.974 301.765L914.435 289.156L954.28 286.13L949.236 278.06L954.28 273.016L949.236 267.468L957.81 261.92L954.28 258.894L962.854 254.859L970.924 258.894L974.959 254.859L980.507 244.772L989.081 250.824L995.638 238.719V231.658L1010.26 207.449L1003.71 204.927L993.116 191.813V189.796H964.871L964.367 192.318H960.332L958.819 195.848L965.88 199.883L975.967 208.457L974.959 210.979L968.402 208.457L965.88 212.997L960.332 219.553L956.802 221.067L953.271 228.128L964.367 236.702L922 267.468L916.957 258.894L920.992 255.363L917.965 249.815L914.435 250.824L907.374 244.772L904.348 238.719L905.861 236.702L899.808 228.128H894.26L896.782 219.553L904.348 221.067L916.957 202.909L912.922 199.883L918.974 189.796L885.182 191.813L876.608 208.457L873.581 214.51L880.642 219.553L882.66 228.128L879.634 246.789L873.581 249.815L867.529 246.789L863.998 244.772L860.468 246.789L852.902 250.824L848.363 246.789H842.311L839.789 244.772L842.311 231.658H839.789L835.754 242.25L831.719 238.719L828.693 233.171L830.206 210.979L802.97 204.422H796.414L774.221 210.979L730.846 225.101L728.324 216.023L738.916 209.97L742.447 210.979L739.925 202.405V197.866L732.864 194.84L731.855 190.3H693.019L698.567 196.353L687.975 198.874L686.966 201.396L683.436 204.422V209.97L679.401 212.997L673.349 214.005L664.27 203.414H659.731L657.209 193.831L649.643 196.353L644.6 198.874L638.043 199.883L640.565 190.3H118.043V698.195H1113.66ZM891.738 467.196L924.018 454.083L936.123 443.491V433.908L925.531 430.378L927.044 425.334L914.939 421.299L917.461 417.769C920.655 418.777 927.044 420.492 927.044 419.282C927.044 418.071 931.751 415.751 934.105 414.742L927.044 401.629L920.992 404.151L924.018 394.064L931.583 385.994L934.105 377.924L924.018 365.819L910.4 346.149L887.703 358.254L890.225 373.889L898.8 385.994V388.516L866.52 385.994L868.538 404.151L866.52 407.177L868.538 419.282L872.573 417.769L876.103 427.352L872.573 430.378V443.491L881.147 454.083L887.703 463.666L891.738 467.196Z" fill="#2B5DA2"/>
<path d="M227.491 690.126V695.674L870.051 698.7V696.178L852.399 686.595L842.816 656.333L790.362 618.001V603.879L792.884 596.314L785.822 594.296L790.362 578.661L784.309 571.096L778.761 586.731H773.718L776.744 568.574L758.587 554.452L753.039 560L742.951 546.886V529.233L737.908 537.303L722.777 541.842L717.733 537.303H707.142L710.672 522.172L707.142 511.581L717.733 507.546L722.777 499.98L714.203 489.893L705.124 468.71L713.194 455.092L718.742 443.491L710.672 401.629L717.733 400.116L713.194 384.481L696.046 372.88V365.819L680.915 353.21L684.445 346.149L707.142 335.557L705.124 331.018L713.194 327.992L707.142 317.904L710.672 314.878L707.142 305.295L694.028 313.365L684.445 302.269L680.915 303.782L671.836 296.721L662.758 298.234C654.688 302.605 638.346 311.348 637.539 311.348C636.732 311.348 631.487 307.313 628.965 305.295L621.4 324.461L617.365 320.931L605.26 303.782L598.199 302.269L588.112 275.033L594.164 260.407V235.189L588.112 232.667L581.555 225.101V216.527L577.52 215.014L578.529 205.936L587.103 206.44L589.625 201.901L586.094 197.361L588.112 188.787H571.972L564.406 223.084L558.858 229.136L543.223 225.101L525.066 232.667C524.057 227.287 521.838 216.527 521.031 216.527C520.224 216.527 524.73 211.82 527.083 209.466L539.188 205.936V188.787H462.525H455.464L437.306 191.309L426.21 188.787H421.671L432.767 205.936V216.527H426.21L410.071 214.005L392.418 223.084L385.357 232.667L382.835 225.101L385.357 216.527L379.305 209.466L382.835 199.883L375.27 195.848L371.739 188.787H236.569L246.152 193.831L244.135 197.866L235.056 205.936L222.951 216.527L231.021 223.084C231.189 226.614 231.425 233.978 231.021 235.189C230.618 236.399 236.906 238.383 240.1 239.224L235.056 254.859L225.978 259.398L219.925 270.999L233.039 275.033V285.625L225.978 293.695L217.403 283.103L213.369 281.59L209.838 293.695L204.29 284.112L192.69 289.156L184.115 285.625L186.637 275.033L178.567 266.964L175.541 251.833L185.124 243.763L192.69 235.189C192.858 232.162 193.093 225.908 192.69 225.101C192.286 224.294 179.744 227.791 173.524 229.641L162.932 223.084L159.906 209.466L151.836 203.414L144.775 197.866H137.21L132.166 214.005L123.592 205.936L118.044 210.475L113 223.084L115.017 426.847V472.24L132.166 466.692L136.201 477.284L139.731 487.371L126.113 492.415V498.971H115.017V519.146L153.854 523.685L159.906 543.355L143.262 549.408L133.679 546.382L128.635 537.807L126.113 532.764L115.017 539.321V610.436L123.592 612.453L126.113 622.036L115.017 627.08L113 646.75H118.044L119.557 651.29L123.592 657.846L131.661 661.377L140.236 666.421L148.306 664.403V657.846L152.34 651.29L163.941 646.75L172.515 655.324L189.159 674.49L163.941 679.03H146.288L131.661 690.126L137.21 693.656L152.34 695.674H204.29L195.211 688.613L197.733 685.082L207.821 683.065L215.89 679.03L224.969 677.517H238.587L246.152 685.082L238.587 690.126L231.526 688.613L227.491 690.126Z" fill="#3A72B4"/>
<path d="M292.553 688.108L279.439 696.682L587.606 697.187L607.277 681.551L584.076 666.925L589.119 658.35L587.606 648.768L591.137 645.741V636.663L595.172 635.15L596.18 628.593L616.859 610.436L634.512 594.801H651.661L676.879 604.888L683.436 602.366L694.027 593.287L689.488 588.244L683.436 577.148L679.401 560.504H667.8L661.748 550.416L659.73 529.738L641.573 491.91L613.833 476.779L615.346 473.249L624.425 469.214L626.947 464.17L634.512 461.648L632.999 454.587L628.46 453.074L623.416 459.631L618.877 452.065L615.346 453.074L612.825 443.491L608.79 439.961L605.259 432.395L594.667 434.413L591.137 427.351H584.58L580.041 416.76L581.05 415.751L583.571 419.282L592.65 421.299L599.711 416.76L597.694 413.734V407.681L607.277 404.655L604.25 394.063L595.676 395.072L581.05 399.107L572.475 382.463H570.962L567.432 370.358L570.962 365.819L574.493 360.271H580.041H586.598L595.676 352.706V351.192L588.111 348.671H580.041L572.475 351.192L580.041 335.053L581.05 331.018L588.111 325.974L586.598 321.939L581.05 318.913L574.493 323.452L572.475 328.496H567.432L561.379 326.983L557.849 325.974L556.336 335.053L549.779 329.505H544.735L542.718 333.54H539.187L533.639 331.018L526.578 333.54C526.242 332.699 525.267 331.018 524.056 331.018C522.846 331.018 527.923 329.337 530.613 328.496V325.974C526.41 326.983 517.802 329.101 516.995 329.505C516.188 329.908 515.314 332.363 514.978 333.54L520.021 335.053L514.978 337.575L510.943 331.018L513.465 318.913L510.943 310.843L515.987 304.286L525.569 302.773V297.73L535.152 292.686H547.257L548.77 289.156V269.485L516.995 272.512L518.004 264.442L508.925 260.911V257.381L502.873 253.85V262.424H499.847L494.299 253.85L498.334 243.763L489.76 239.223L481.69 236.197V251.833V269.485H476.646L473.116 266.459H466.559L464.541 263.433L473.116 262.424L471.602 255.867L460.002 250.319L450.923 253.85L462.019 275.033L449.41 281.59L438.819 286.634L424.696 258.894L416.627 264.442H407.044L393.93 251.833L387.878 253.85L380.312 260.911L373.756 263.433L367.703 267.972L356.103 264.442L348.033 260.911L343.998 253.85V239.223L335.424 243.763H330.38L323.824 239.223H314.241L308.188 248.806L304.658 245.276L292.553 251.833L287.005 263.433L288.518 275.033L284.987 281.59H280.448V296.217L274.9 298.738V303.782L269.352 308.826L266.83 318.409L257.752 313.869L248.169 316.391L223.455 336.566L220.429 351.192L216.394 355.227L209.837 351.192L204.289 346.653L206.307 334.044H202.776L200.759 338.583L195.211 331.522L189.158 335.053V341.609L182.097 346.653L186.636 355.227H179.071L170.497 357.245L162.427 364.306L165.957 372.88L156.879 370.863L154.357 372.88L159.401 378.932L154.357 384.985L168.479 403.142L162.427 415.247L156.879 411.716L154.357 402.133L148.305 400.62L139.226 395.072L134.182 408.69L137.713 415.247L132.669 423.821H119.051L114.008 427.856V473.249L130.652 468.205L139.226 484.345L136.2 489.893L126.617 491.91V498.467H115.017V519.146L155.87 523.685L158.896 541.338L139.226 549.912L132.669 546.382L126.617 534.277L115.017 541.338V609.427L122.582 613.462V625.567L119.051 631.115L122.582 643.724L139.226 634.141H152.34L168.479 656.837L186.636 646.246L192.184 632.124L182.601 602.366L193.697 595.809L226.481 590.766L238.586 631.115H247.664L252.204 656.837L231.525 662.89L234.047 680.543H240.603L245.647 688.108L257.752 677.516L262.291 686.091L272.883 677.516L279.439 683.064L292.553 680.543V688.108Z" fill="#4D89C7"/>
<path d="M239.09 587.74L312.727 576.139V582.696L330.38 610.94V622.541L345.511 651.29L352.572 655.325L365.686 666.421L374.764 685.082L368.208 697.187H571.467L564.91 681.551L558.857 674.49L540.7 658.351L549.779 643.22L574.997 633.637H590.632L609.798 618.506L620.39 600.853H609.798L602.233 593.792L590.632 595.809L588.615 574.122L594.163 567.565L590.632 557.478L584.58 560.504L581.554 539.825V530.746L577.519 495.441V489.389L584.58 486.867V481.319L588.615 461.144V454.083L581.554 451.561L558.857 459.127L553.814 456.605L560.371 451.561L564.91 442.987L574.997 439.961V435.422L564.91 430.378L556.336 423.821L549.779 417.769L560.371 411.212L558.857 405.664H549.779L548.77 411.212L543.222 412.221L538.178 400.62L529.1 398.603L525.569 392.551L529.1 388.516L537.17 391.037L540.7 371.367L532.126 370.358L527.082 375.906L524.056 370.358H504.386L499.847 346.149L501.36 335.053L493.794 330.514L486.229 318.409L466.054 340.097L461.011 336.566L453.445 343.123L445.88 335.053L437.81 336.566L410.07 356.236C403.177 351.361 388.987 341.307 387.373 340.097C385.759 338.886 382.33 334.212 380.817 332.027L368.208 313.87L355.598 321.435L361.146 340.097V354.219H355.598V361.28L352.572 360.271L338.45 364.306L345.511 375.906L351.059 388.516L342.485 392.551L330.38 381.959L312.727 380.446L288.014 383.472V388.516L276.918 383.472L270.865 391.037L261.787 388.516L260.274 400.116H254.221L252.204 407.177L250.186 408.69L248.673 400.116L239.09 404.655L243.63 408.69L248.673 422.308L241.108 420.795V427.856L248.673 433.404V439.961L250.186 445.004L230.516 449.039H216.394L208.324 445.004V456.605L216.394 471.231L213.872 481.319V486.867L202.776 511.076L210.341 514.607L201.263 522.677L199.245 528.729L189.663 525.703L186.636 533.268L181.593 530.242L173.523 517.633L160.409 514.607H147.296V507.546L133.678 504.015L125.104 500.485H114.008L115.017 519.65L153.853 525.703L157.888 542.347L143.261 547.895L142.252 551.425L135.191 548.904L131.156 545.373V542.347H127.626L123.591 534.781L115.017 542.347L127.626 567.565L138.217 592.279H144.27L147.296 598.331L153.853 596.314L157.888 605.392L162.931 600.853L161.418 596.314L162.931 587.74L160.409 582.696L157.888 575.131L167.47 567.565L170.497 573.617L177.558 565.043L183.106 576.139L205.802 569.078L208.324 580.174H216.394V567.565L222.446 560.504H232.534H245.647L236.064 569.078L239.09 587.74Z" fill="#6CA6DF"/>
<path d="M323.319 596.314L331.389 615.984L328.867 622.036L349.042 653.307L357.616 656.838L367.703 668.438H382.33L389.391 661.881L421.166 664.403L444.871 658.351L465.55 668.438L471.602 677.012L477.655 669.951L479.168 658.351L495.812 636.663L505.899 641.202L507.412 631.115L510.943 633.132L516.995 619.01L510.943 612.958L523.048 545.373L525.065 528.225L523.048 527.72V518.137L516.995 519.146L514.978 516.624L507.412 509.563V503.511L514.978 501.998V497.458L521.535 496.45H525.065L527.587 492.415L529.1 477.788H519.517L518.004 472.745L510.943 475.266L510.438 472.745L516.995 466.188L510.943 463.666L513.465 454.587L510.438 453.074L507.412 446.518V441.474L510.438 437.943L508.421 431.387V423.821L488.751 420.795L470.594 426.343L468.576 435.422L463.533 437.439L460.506 429.874L449.41 432.9L436.297 416.256L436.801 410.203C435.624 408.522 433.271 404.958 433.271 404.151C433.271 403.344 428.9 407.177 426.714 409.195L422.679 406.168L416.627 410.203L406.035 412.725L403.513 415.751L396.452 412.725L391.913 402.133L382.33 392.551L375.269 385.489L373.756 393.055L378.295 394.064V400.116H371.738L371.234 403.647L365.181 405.16L373.251 410.203L362.66 411.212L361.651 403.647L359.633 402.638L356.607 404.151L349.042 400.62L343.998 400.116L338.955 389.02L333.911 384.481L334.415 388.011L321.806 395.072L320.797 392.551L313.232 395.577L317.771 405.16L325.841 408.186L318.78 410.203L317.771 408.186H314.241L315.754 422.308V423.821H314.241L305.666 431.891L309.701 436.43H307.684V441.474L302.136 443.996L307.684 452.57L305.666 462.657L311.214 470.727L328.867 466.188L337.441 488.884H330.38L313.232 499.476L314.241 490.902L305.666 484.849L303.649 481.319L309.701 477.788L307.684 472.24L295.075 479.806L289.022 494.937V502.502H294.57L297.092 505.528C295.579 506.537 292.452 508.655 292.049 509.059C291.645 509.462 295.243 518.305 297.092 522.677L288.014 528.225L293.057 535.79L296.588 534.781L298.101 537.303L303.649 535.286V531.251L305.666 527.72L319.284 573.113L313.232 576.644L323.319 596.314Z" fill="#96C5F1"/>
<path d="M330.885 624.054L332.903 630.106L338.955 627.584H345.512L356.608 636.663L364.173 643.724L374.261 641.707L376.278 635.15L367.2 636.159L364.173 631.115L374.261 623.549L376.278 627.584L388.887 623.549L399.479 628.593L406.036 627.584L405.027 615.48L413.097 616.993L414.61 608.419L414.106 602.366L420.158 600.349L427.723 593.288L446.889 588.244L467.568 588.748L487.238 589.757L499.343 594.296L512.961 597.323L539.692 602.366L541.205 598.836L540.701 596.314L544.736 591.27L548.267 590.766L551.293 593.288L557.849 591.775L555.832 576.139L551.797 568.574L548.771 564.539L543.727 557.478L543.223 551.425C542.046 551.593 539.591 551.93 539.188 551.93C538.784 551.93 540.365 543.524 541.205 539.321L534.649 537.303L532.127 542.851L527.588 546.886L522.04 544.869L519.518 551.93L508.926 546.886L509.43 542.851L501.865 542.347L500.856 539.825L499.343 540.834L498.334 539.321L496.317 539.825L493.795 531.755L490.265 533.773L488.247 531.251L488.751 529.738L490.265 530.746L492.786 528.729L490.265 520.659L485.221 521.668L482.699 519.65L480.177 520.659L481.186 523.181L472.107 526.207L470.09 519.65L480.177 516.12L479.169 511.076L484.212 509.563L482.195 505.528L487.238 501.998L462.02 490.902L453.446 492.415L452.942 485.858L455.463 484.345V480.814H448.907L447.394 479.806V476.779L443.359 475.266L442.35 477.284L437.811 475.266L437.306 480.814H433.776L433.271 483.84L440.837 486.867L443.359 483.84H447.394L447.898 488.38H444.872L445.376 490.397L441.846 490.902L442.35 493.928C438.987 494.264 432.162 494.936 431.758 494.936C431.355 494.936 430.581 488.548 430.245 485.354L427.219 485.858L424.193 477.788L416.627 475.266L415.114 464.17L412.088 459.127L408.557 449.544L392.418 449.039L391.409 444.5H389.392L388.383 453.074L394.94 452.57L398.975 467.701L397.461 468.71L394.94 467.701L393.931 474.258H390.905L389.392 475.266L390.905 477.284L389.392 478.797L385.861 476.275L382.331 478.797L379.809 474.258L372.748 477.284L366.191 465.179L362.66 467.701L360.138 463.161L359.13 458.622L363.669 456.1L362.66 454.587H360.138L354.59 445.509L347.529 449.039L351.06 454.587L349.042 456.1L350.051 461.144L346.016 466.188L347.529 469.718L345.512 472.24L333.407 465.179L329.372 466.188L345.008 523.685L349.042 522.677L353.582 532.259L351.06 534.781L353.582 541.842L355.599 540.329L356.608 542.851L351.06 545.373V546.886L345.008 549.408L350.051 565.043L343.999 567.565L345.512 571.096L336.433 572.609L337.442 576.139L334.92 577.148L335.929 579.165L340.468 577.652L342.486 583.2L336.433 584.209L334.92 582.192L325.842 584.713L326.346 587.235L323.824 588.748L324.833 590.766L333.407 588.748L332.903 593.288H334.92L335.929 595.809L333.912 598.331V604.384L335.929 603.879V606.401L338.955 607.914L333.912 609.427L333.407 619.01L330.885 620.019V624.054Z" fill="#C7E0F0"/>
<path d="M405.532 526.207L407.045 528.729L412.593 543.86L448.907 555.965L459.499 556.469L464.543 552.938L463.029 544.869L460.003 536.294L456.977 536.799L454.455 532.764L449.412 531.251L442.855 528.224L439.324 521.668L435.289 525.703L428.733 528.729L426.715 526.207L429.237 524.19L427.724 520.659L421.672 522.172L424.698 517.633L423.689 515.111L422.68 511.58L420.663 514.102L418.645 511.58L415.619 509.563V507.546L410.071 501.493L391.914 512.589L400.993 525.198L406.036 523.685L406.541 524.694L405.532 526.207Z" fill="#FAFCF7"/>
<path d="M394.941 576.644L401.498 581.183L405.028 578.661L413.602 570.591L416.124 572.104L418.142 571.6L424.698 573.113L428.229 570.591L436.803 566.556L440.334 572.104L448.908 568.574L441.847 555.965L450.421 556.469L451.43 547.895L448.403 545.877V543.355L441.847 536.799L427.725 543.86L425.203 541.842L422.177 543.86L420.159 540.834L423.185 533.773L421.168 530.746H418.646L415.62 528.225L412.089 530.242L405.532 527.72L403.011 529.738L405.028 532.764L403.515 533.773L397.463 525.703L394.941 526.711L391.41 522.677L390.402 523.685L384.854 525.703V529.233L387.88 530.746L393.932 537.807L392.419 540.329L394.941 545.877L392.419 548.903L389.393 551.425L386.871 553.947L391.41 562.521V565.043L394.941 576.644Z" fill="#FAFCF7"/>
<path d="M404.882 683.813L395.997 697.352C395.759 697.714 396.019 698.195 396.452 698.195H405.026C405.655 698.195 406.24 697.875 406.579 697.346L412.706 687.771C413.632 686.325 414.302 684.731 414.688 683.058L417.131 672.473L420.157 653.811L422.429 626.097C422.594 624.083 423.164 622.124 424.105 620.336L426.222 616.313C427.211 614.434 428.588 612.786 430.261 611.479L439.792 604.033C442.43 601.972 445.68 600.853 449.027 600.853H462.524H491.71C493.093 600.853 494.469 601.044 495.8 601.421L524.056 609.427L548.777 618.46C549.778 618.826 550.738 619.297 551.639 619.866L567.788 630.066C568.891 630.762 570.079 631.312 571.324 631.701L582.381 635.156C584.493 635.816 586.726 636.001 588.918 635.696L601.651 633.928C603.041 633.735 604.397 633.348 605.679 632.778L619.129 626.8C620.96 625.986 622.609 624.814 623.98 623.352L634.704 611.913C636.238 610.277 638.119 609.005 640.21 608.192L643.49 606.917C645.223 606.243 647.067 605.897 648.927 605.897H655.19C658.771 605.897 662.234 607.178 664.952 609.508L667.127 611.372C669.84 613.698 671.634 616.915 672.186 620.445L673.604 629.525C673.769 630.582 673.821 631.653 673.758 632.721L672.457 654.848C672.379 656.169 672.476 657.493 672.746 658.788L676.922 678.832C677.228 680.3 677.752 681.715 678.478 683.028L686.999 698.447C687.601 699.537 688.748 700.213 689.992 700.213H706.636C707.169 700.213 707.421 699.558 707.025 699.203C703.443 695.996 697.779 690.992 697.053 690.63C696.045 690.126 689.488 674.995 687.975 673.986C686.885 673.259 685.986 667.026 685.572 663.091C685.487 662.286 685.482 661.475 685.54 660.667L687.771 629.431C687.906 627.545 687.682 625.649 687.113 623.846L683.666 612.932C682.544 609.378 680.139 606.37 676.921 604.492L666.765 598.568C664.791 597.417 662.581 596.731 660.302 596.565L645.874 595.509C644.032 595.374 642.18 595.581 640.412 596.119L634.56 597.9C632.534 598.517 630.661 599.556 629.065 600.949L605.015 621.938C604.172 622.674 603.251 623.317 602.255 623.827C599.895 625.038 596.654 626.576 595.676 626.576C594.466 626.576 586.093 624.222 582.058 623.045L561.884 614.975L537.17 603.879L521.535 598.836L503.377 595.305L490.899 591.294C489.807 590.943 488.683 590.719 487.54 590.625C476.848 589.752 458.122 588.244 456.976 588.244C455.902 588.244 446.541 589.568 440.451 590.453C439.032 590.66 437.653 591.071 436.351 591.672L429.681 594.751C426.771 596.094 424.368 598.333 422.823 601.141L415.517 614.426C414.584 616.121 413.989 617.981 413.763 619.902L409.061 659.864L406.319 679.973C406.132 681.344 405.641 682.656 404.882 683.813Z" fill="#C6DCFA"/>
</g>
<g style="mix-blend-mode:screen">
<rect x="187" y="224" width="201" height="374" fill="url(#paint5_linear)"/>
</g>
<rect x="388.335" y="219.591" width="11.8182" height="11.8182" rx="2.95455" fill="white" stroke="#0D2270" stroke-width="1.18182"/>
<rect x="386.877" y="218.133" width="19.9902" height="11.9215" rx="4.41212" stroke="white" stroke-width="1.73333"/>
<g filter="url(#filter5_b)">
<rect x="236" y="474" width="250" height="307" rx="23.7156" fill="white" fill-opacity="0.2"/>
<rect x="236.539" y="474.539" width="248.922" height="305.922" rx="23.1766" stroke="white" stroke-width="1.07798"/>
</g>
<rect x="383" y="217" width="17" height="17" rx="4.63636" fill="white"/>
<rect x="383.773" y="217.773" width="15.4545" height="15.4545" rx="3.86364" stroke="#0D2270" stroke-opacity="0.5" stroke-width="1.54545"/>
<rect x="381.867" y="215.867" width="19.2667" height="19.2667" rx="5.7697" stroke="white" stroke-width="2.26667"/>
<g filter="url(#filter6_b)">
<rect x="338" y="90" width="185" height="347" rx="23.7156" fill="white" fill-opacity="0.2"/>
<rect x="338.539" y="90.539" width="183.922" height="345.922" rx="23.1766" stroke="white" stroke-width="1.07798"/>
</g>
<rect x="352" y="114" width="112.357" height="12.5714" rx="6.28571" fill="url(#paint6_linear)"/>
<rect x="463.572" y="304.143" width="36.9286" height="5.5" rx="2.75" fill="url(#paint7_linear)"/>
<rect x="381.857" y="304.143" width="36.9286" height="5.5" rx="2.75" fill="url(#paint8_linear)"/>
<circle cx="428.608" cy="214.178" r="60.7957" stroke="url(#paint9_linear)" stroke-opacity="0.1" stroke-width="6.28571"/>
<circle cx="428.348" cy="214.437" r="46.5669" stroke="url(#paint10_linear)" stroke-opacity="0.4" stroke-width="6.28571"/>
<path d="M460.695 180.94C455.261 175.692 448.631 171.845 441.378 169.731C434.126 167.617 426.467 167.299 419.064 168.805" stroke="#8AB4F5" stroke-width="6.28571" stroke-linecap="round"/>
<path d="M370.787 195.392C366.651 208.12 366.831 221.857 371.299 234.473C375.766 247.088 384.271 257.877 395.496 265.166C406.72 272.455 420.035 275.837 433.377 274.787C446.719 273.737 459.342 268.314 469.288 259.359C479.233 250.403 485.946 238.417 488.385 225.258C490.824 212.099 488.853 198.502 482.777 186.578C476.701 174.653 466.86 165.067 454.781 159.305C442.701 153.544 429.058 151.929 415.967 154.711" stroke="#E8F1FF" stroke-width="6.28571" stroke-linecap="round"/>
<rect x="458.877" y="179.253" width="3.62187" height="3.62187" rx="1.81094" fill="#3B6CB9"/>
<rect x="368.848" y="194.258" width="3.62187" height="3.62187" rx="1.81094" fill="#3B6CB9"/>
<circle cx="451.786" cy="305.714" r="6.28571" fill="#B7D3FE"/>
<circle cx="370.071" cy="305.714" r="6.28571" fill="#E8F1FF"/>
<rect x="352" y="337" width="94" height="16" rx="8" fill="url(#paint11_linear)"/>
<rect x="352" y="374" width="153" height="7" rx="3.5" fill="url(#paint12_linear)"/>
<rect x="352" y="406" width="153" height="7" rx="3.5" fill="url(#paint13_linear)"/>
<rect x="352" y="374" width="97" height="7" rx="3.5" fill="#07255E"/>
<rect x="352" y="406" width="128" height="7" rx="3.5" fill="#07255E"/>
<rect x="180" y="588" width="17" height="17" rx="4.63636" fill="white"/>
<rect x="180.773" y="588.773" width="15.4545" height="15.4545" rx="3.86364" stroke="#0D2270" stroke-opacity="0.5" stroke-width="1.54545"/>
<rect x="178.867" y="586.867" width="19.2667" height="19.2667" rx="5.7697" stroke="white" stroke-width="2.26667"/>
<rect x="180" y="217" width="17" height="17" rx="4.63636" fill="white"/>
<rect x="180.773" y="217.773" width="15.4545" height="15.4545" rx="3.86364" stroke="#0D2270" stroke-opacity="0.5" stroke-width="1.54545"/>
<rect x="178.867" y="215.867" width="19.2667" height="19.2667" rx="5.7697" stroke="white" stroke-width="2.26667"/>
<path d="M257.513 662.639L254 659.194V691.061H469V656.611L460.569 672.113L454.948 647.137L450.029 653.166L435.977 616.992L429.654 626.466L427.546 613.547L423.33 606.657L414.196 635.94L406.467 626.466L400.846 630.773L390.307 579.097L386.091 591.154H380.471V573.929L369.229 551.536L365.716 562.733H360.095L344.637 638.524L336.908 647.137L330.585 679.004H326.369L323.559 666.946L320.046 679.004L306.696 672.113L299.67 685.032L288.428 670.391L283.51 656.611L279.294 660.917L274.376 650.582L267.35 660.917L261.729 656.611L257.513 662.639Z" fill="url(#paint14_linear)"/>
<path d="M254 659.194L257.513 662.639L261.729 656.611L267.35 660.917L274.376 650.582L279.294 660.917L283.51 656.611L288.428 670.391L299.67 685.032L306.696 672.113L320.046 679.004L323.559 666.946L326.369 679.004H330.585L336.908 647.137L344.637 638.524L360.095 562.733H365.716L369.229 551.536L380.471 573.929V591.154H386.091L390.307 579.097L400.846 630.773L406.467 626.466L414.196 635.94L423.33 606.657L427.546 613.547L429.654 626.466L435.977 616.992L450.029 653.166L454.948 647.137L460.569 672.113L469 656.611" stroke="white" stroke-width="2.5" stroke-linecap="round"/>
<rect x="260" y="518" width="78" height="18" rx="9" fill="url(#paint15_linear)"/>
<rect x="254" y="711.732" width="40.4706" height="8.26816" rx="4.13408" fill="url(#paint16_linear)"/>
<rect x="311.332" y="711.732" width="40.4706" height="8.26816" rx="4.13408" fill="url(#paint17_linear)"/>
<rect x="367.824" y="711.732" width="41.3137" height="8.26816" rx="4.13408" fill="url(#paint18_linear)"/>
<rect x="425.156" y="711.732" width="40.4706" height="8.26816" rx="4.13408" fill="url(#paint19_linear)"/>
<rect x="122.5" y="190.5" width="1031" height="506" rx="42.5" stroke="white" stroke-opacity="0.8"/>
</g>
<defs>
<filter id="filter0_d" x="64.1484" y="-357" width="1035.54" height="1507.01" filterUnits="userSpaceOnUse" color-interpolation-filters="sRGB">
<feFlood flood-opacity="0" result="BackgroundImageFix"/>
<feColorMatrix in="SourceAlpha" type="matrix" values="0 0 0 0 0 0 0 0 0 0 0 0 0 0 0 0 0 0 127 0"/>
<feOffset dx="-24" dy="4"/>
<feGaussianBlur stdDeviation="100"/>
<feColorMatrix type="matrix" values="0 0 0 0 0.988235 0 0 0 0 0.505882 0 0 0 0 0.333333 0 0 0 1 0"/>
<feBlend mode="normal" in2="BackgroundImageFix" result="effect1_dropShadow"/>
<feBlend mode="normal" in="SourceGraphic" in2="effect1_dropShadow" result="shape"/>
</filter>
<filter id="filter1_d" x="10.3398" y="-203.366" width="821.495" height="1288.95" filterUnits="userSpaceOnUse" color-interpolation-filters="sRGB">
<feFlood flood-opacity="0" result="BackgroundImageFix"/>
<feColorMatrix in="SourceAlpha" type="matrix" values="0 0 0 0 0 0 0 0 0 0 0 0 0 0 0 0 0 0 127 0"/>
<feOffset dy="4"/>
<feGaussianBlur stdDeviation="50"/>
<feColorMatrix type="matrix" values="0 0 0 0 0.248958 0 0 0 0 0.469348 0 0 0 0 0.995833 0 0 0 1 0"/>
<feBlend mode="normal" in2="BackgroundImageFix" result="effect1_dropShadow"/>
<feBlend mode="normal" in="SourceGraphic" in2="effect1_dropShadow" result="shape"/>
</filter>
<filter id="filter2_f" x="243.648" y="-122.527" width="518.464" height="1085.5" filterUnits="userSpaceOnUse" color-interpolation-filters="sRGB">
<feFlood flood-opacity="0" result="BackgroundImageFix"/>
<feBlend mode="normal" in="SourceGraphic" in2="BackgroundImageFix" result="shape"/>
<feGaussianBlur stdDeviation="5" result="effect1_foregroundBlur"/>
</filter>
<filter id="filter3_f" x="274.453" y="-120.341" width="497.056" height="1074.43" filterUnits="userSpaceOnUse" color-interpolation-filters="sRGB">
<feFlood flood-opacity="0" result="BackgroundImageFix"/>
<feBlend mode="normal" in="SourceGraphic" in2="BackgroundImageFix" result="shape"/>
<feGaussianBlur stdDeviation="5" result="effect1_foregroundBlur"/>
</filter>
<filter id="filter4_f" x="96.4707" y="-110.968" width="609.944" height="1105.03" filterUnits="userSpaceOnUse" color-interpolation-filters="sRGB">
<feFlood flood-opacity="0" result="BackgroundImageFix"/>
<feBlend mode="normal" in="SourceGraphic" in2="BackgroundImageFix" result="shape"/>
<feGaussianBlur stdDeviation="5" result="effect1_foregroundBlur"/>
</filter>
<filter id="filter5_b" x="225.22" y="463.22" width="271.56" height="328.56" filterUnits="userSpaceOnUse" color-interpolation-filters="sRGB">
<feFlood flood-opacity="0" result="BackgroundImageFix"/>
<feGaussianBlur in="BackgroundImage" stdDeviation="5.38991"/>
<feComposite in2="SourceAlpha" operator="in" result="effect1_backgroundBlur"/>
<feBlend mode="normal" in="SourceGraphic" in2="effect1_backgroundBlur" result="shape"/>
</filter>
<filter id="filter6_b" x="327.22" y="79.2202" width="206.56" height="368.56" filterUnits="userSpaceOnUse" color-interpolation-filters="sRGB">
<feFlood flood-opacity="0" result="BackgroundImageFix"/>
<feGaussianBlur in="BackgroundImage" stdDeviation="5.38991"/>
<feComposite in2="SourceAlpha" operator="in" result="effect1_backgroundBlur"/>
<feBlend mode="normal" in="SourceGraphic" in2="effect1_backgroundBlur" result="shape"/>
</filter>
<linearGradient id="paint0_linear" x1="575.108" y1="546.532" x2="545.671" y2="567.503" gradientUnits="userSpaceOnUse">
<stop stop-color="#6A94C6"/>
<stop offset="1" stop-color="#6C97C6"/>
</linearGradient>
<linearGradient id="paint1_linear" x1="413.055" y1="396.517" x2="319.34" y2="437.339" gradientUnits="userSpaceOnUse">
<stop stop-color="#6096FF"/>
<stop offset="1" stop-color="#A2B9F2"/>
</linearGradient>
<linearGradient id="paint2_linear" x1="317.5" y1="116" x2="291.445" y2="121.504" gradientUnits="userSpaceOnUse">
<stop stop-color="#3874DA"/>
<stop offset="1" stop-color="#6096FE"/>
</linearGradient>
<linearGradient id="paint3_linear" x1="305.498" y1="193" x2="430.795" y2="-82.7614" gradientUnits="userSpaceOnUse">
<stop stop-color="#C2E2F4"/>
<stop offset="1" stop-color="#C2E2F4" stop-opacity="0"/>
</linearGradient>
<linearGradient id="paint4_linear" x1="107" y1="175" x2="304.343" y2="392.168" gradientUnits="userSpaceOnUse">
<stop stop-color="#304FF3"/>
<stop offset="0.151042" stop-color="#6596D7"/>
<stop offset="0.255208" stop-color="white"/>
<stop offset="0.307292" stop-color="#80A9CC"/>
<stop offset="0.5625" stop-color="#001C58"/>
<stop offset="1" stop-color="#00010F"/>
</linearGradient>
<linearGradient id="paint5_linear" x1="287.5" y1="224" x2="369.5" y2="598" gradientUnits="userSpaceOnUse">
<stop stop-color="white" stop-opacity="0.76"/>
<stop offset="1" stop-color="white" stop-opacity="0.19"/>
</linearGradient>
<linearGradient id="paint6_linear" x1="408.179" y1="114" x2="408.179" y2="126.571" gradientUnits="userSpaceOnUse">
<stop stop-color="#4E79BD"/>
<stop offset="1" stop-color="#DDE5F2"/>
</linearGradient>
<linearGradient id="paint7_linear" x1="482.037" y1="304.143" x2="482.037" y2="309.643" gradientUnits="userSpaceOnUse">
<stop stop-color="#4E79BD"/>
<stop offset="1" stop-color="#DDE5F2" stop-opacity="0.72"/>
</linearGradient>
<linearGradient id="paint8_linear" x1="400.322" y1="304.143" x2="400.322" y2="309.643" gradientUnits="userSpaceOnUse">
<stop stop-color="#4E79BD"/>
<stop offset="1" stop-color="#DDE5F2" stop-opacity="0.72"/>
</linearGradient>
<linearGradient id="paint9_linear" x1="428.608" y1="153.383" x2="367.813" y2="442.615" gradientUnits="userSpaceOnUse">
<stop stop-color="#EFEFEF"/>
<stop offset="1" stop-color="#EFEFEF" stop-opacity="0"/>
</linearGradient>
<linearGradient id="paint10_linear" x1="428.348" y1="167.87" x2="414.464" y2="269.571" gradientUnits="userSpaceOnUse">
<stop stop-color="#EFEFEF" stop-opacity="0.35"/>
<stop offset="1" stop-color="#EFEFEF" stop-opacity="0.31"/>
</linearGradient>
<linearGradient id="paint11_linear" x1="399" y1="337" x2="399" y2="353" gradientUnits="userSpaceOnUse">
<stop stop-color="#4E79BD"/>
<stop offset="1" stop-color="#DDE5F2" stop-opacity="0.72"/>
</linearGradient>
<linearGradient id="paint12_linear" x1="428.5" y1="374" x2="428.5" y2="381" gradientUnits="userSpaceOnUse">
<stop stop-color="#4E79BD"/>
<stop offset="1" stop-color="#DDE5F2" stop-opacity="0.72"/>
</linearGradient>
<linearGradient id="paint13_linear" x1="428.5" y1="406" x2="428.5" y2="413" gradientUnits="userSpaceOnUse">
<stop stop-color="#4E79BD"/>
<stop offset="1" stop-color="#DDE5F2" stop-opacity="0.72"/>
</linearGradient>
<linearGradient id="paint14_linear" x1="361.5" y1="587.193" x2="361.5" y2="691.061" gradientUnits="userSpaceOnUse">
<stop stop-color="white" stop-opacity="0.92"/>
<stop offset="1" stop-color="white" stop-opacity="0"/>
</linearGradient>
<linearGradient id="paint15_linear" x1="299" y1="518" x2="299" y2="536" gradientUnits="userSpaceOnUse">
<stop stop-color="#4E79BD"/>
<stop offset="1" stop-color="#DDE5F2" stop-opacity="0.72"/>
</linearGradient>
<linearGradient id="paint16_linear" x1="274.235" y1="711.732" x2="274.235" y2="720" gradientUnits="userSpaceOnUse">
<stop stop-color="#4E79BD"/>
<stop offset="1" stop-color="#DDE5F2" stop-opacity="0.72"/>
</linearGradient>
<linearGradient id="paint17_linear" x1="331.567" y1="711.732" x2="331.567" y2="720" gradientUnits="userSpaceOnUse">
<stop stop-color="#4E79BD"/>
<stop offset="1" stop-color="#DDE5F2" stop-opacity="0.72"/>
</linearGradient>
<linearGradient id="paint18_linear" x1="388.481" y1="711.732" x2="388.481" y2="720" gradientUnits="userSpaceOnUse">
<stop stop-color="#4E79BD"/>
<stop offset="1" stop-color="#DDE5F2" stop-opacity="0.72"/>
</linearGradient>
<linearGradient id="paint19_linear" x1="445.392" y1="711.732" x2="445.392" y2="720" gradientUnits="userSpaceOnUse">
<stop stop-color="#4E79BD"/>
<stop offset="1" stop-color="#DDE5F2" stop-opacity="0.72"/>
</linearGradient>
<clipPath id="clip0">
<rect width="694" height="982" fill="white"/>
</clipPath>
<clipPath id="clip1">
<rect x="123" y="191" width="1030" height="505" rx="42" fill="white"/>
</clipPath>
</defs>
</svg>
