<svg width="143" height="145" viewBox="0 0 143 145" fill="none" xmlns="http://www.w3.org/2000/svg">
<rect width="143" height="143" rx="35" fill="#BEF0E5"/>
<g style="mix-blend-mode:color-burn">
<rect x="1" width="142" height="144.051" fill="url(#paint0_radial)" fill-opacity="0.35"/>
</g>
<path d="M111 50.4706L89 24.7096H111V50.4706Z" fill="#BEF0E5"/>
<path d="M51 61V111C51 114.314 53.6863 117 57 117H107C110.314 117 113 114.314 113 111V61C113 57.6863 110.314 55 107 55H57C53.6863 55 51 57.6863 51 61Z" stroke="black" stroke-opacity="0.8" stroke-width="3" stroke-linecap="round"/>
<g filter="url(#filter0_d)">
<path d="M39 45.2987V98.3585C39 101.672 41.6863 104.358 45 104.358H94.875C98.1887 104.358 100.875 101.672 100.875 98.3585V45.2987C100.875 41.985 98.1887 39.2987 94.875 39.2987H45C41.6863 39.2987 39 41.985 39 45.2987Z" fill="#4F4F4F"/>
</g>
<g filter="url(#filter1_d)">
<path d="M25 33V82C25 85.3137 27.6863 88 31 88H80.875C84.1887 88 86.875 85.3137 86.875 82V33C86.875 29.6863 84.1887 27 80.875 27H31C27.6863 27 25 29.6863 25 33Z" fill="white"/>
</g>
<path fill-rule="evenodd" clip-rule="evenodd" d="M77.3753 32.2924L67.7447 50.4706L58.2988 31.8659C57.5498 30.8391 56.9598 29.6888 56.5652 28.4513L56 27.3382H56.2686C56.0927 26.5205 56 25.6718 56 24.8015V23.5662C56 16.9387 61.3726 11.5662 68 11.5662C74.6274 11.5662 80 16.9387 80 23.5662V24.8015C80 25.6718 79.9073 26.5205 79.7314 27.3382H80L79.4704 28.3378C79.0222 29.7935 78.3044 31.1311 77.3753 32.2924Z" fill="#53A4F9"/>
<defs>
<filter id="filter0_d" x="39" y="39.2987" width="64.875" height="68.0597" filterUnits="userSpaceOnUse" color-interpolation-filters="sRGB">
<feFlood flood-opacity="0" result="BackgroundImageFix"/>
<feColorMatrix in="SourceAlpha" type="matrix" values="0 0 0 0 0 0 0 0 0 0 0 0 0 0 0 0 0 0 127 0"/>
<feOffset dx="3" dy="3"/>
<feColorMatrix type="matrix" values="0 0 0 0 0 0 0 0 0 0 0 0 0 0 0 0 0 0 0.4 0"/>
<feBlend mode="normal" in2="BackgroundImageFix" result="effect1_dropShadow"/>
<feBlend mode="normal" in="SourceGraphic" in2="effect1_dropShadow" result="shape"/>
</filter>
<filter id="filter1_d" x="25" y="27" width="64.875" height="64" filterUnits="userSpaceOnUse" color-interpolation-filters="sRGB">
<feFlood flood-opacity="0" result="BackgroundImageFix"/>
<feColorMatrix in="SourceAlpha" type="matrix" values="0 0 0 0 0 0 0 0 0 0 0 0 0 0 0 0 0 0 127 0"/>
<feOffset dx="3" dy="3"/>
<feColorMatrix type="matrix" values="0 0 0 0 0 0 0 0 0 0 0 0 0 0 0 0 0 0 0.4 0"/>
<feBlend mode="normal" in2="BackgroundImageFix" result="effect1_dropShadow"/>
<feBlend mode="normal" in="SourceGraphic" in2="effect1_dropShadow" result="shape"/>
</filter>
<radialGradient id="paint0_radial" cx="0" cy="0" r="1" gradientUnits="userSpaceOnUse" gradientTransform="translate(72 95.1581) rotate(90) scale(64.1397 90.2065)">
<stop stop-color="#494949"/>
<stop offset="1" stop-color="#C4C4C4" stop-opacity="0"/>
</radialGradient>
</defs>
</svg>
