<svg width="143" height="143" viewBox="0 0 143 143" fill="none" xmlns="http://www.w3.org/2000/svg">
<rect width="143" height="143" rx="35" fill="#F9E4B8"/>
<g style="mix-blend-mode:color-burn">
<rect x="1" y="3" width="142" height="137" fill="url(#paint0_radial)" fill-opacity="0.37"/>
</g>
<g filter="url(#filter0_d)">
<path d="M61 67V72.3741V106C61 109.314 63.6863 112 67 112H103C106.314 112 109 109.314 109 106V67C109 63.6863 106.314 61 103 61H67C63.6863 61 61 63.6863 61 67Z" fill="white"/>
</g>
<rect x="48.082" y="41.0832" width="48.2857" height="46.8333" stroke="black" stroke-width="4"/>
<rect x="88" y="49" width="16" height="16" rx="7.9881" transform="rotate(-90 88 49)" fill="#53A4F9"/>
<rect x="88" y="96" width="16" height="16" rx="7.9881" transform="rotate(-90 88 96)" fill="#53A4F9"/>
<rect x="40" y="96" width="16" height="16" rx="7.9881" transform="rotate(-90 40 96)" fill="#53A4F9"/>
<rect x="41" y="47.0714" width="13.0714" height="13.0714" rx="6.53571" transform="rotate(-90 41 47.0714)" fill="#53A4F9"/>
<g filter="url(#filter1_d)">
<path d="M28 24V69C28 72.3137 30.6863 75 34 75H72C75.3137 75 78 72.3137 78 69V24C78 20.6863 75.3137 18 72 18H34C30.6863 18 28 20.6863 28 24Z" fill="white"/>
</g>
<defs>
<filter id="filter0_d" x="61" y="61" width="53" height="55" filterUnits="userSpaceOnUse" color-interpolation-filters="sRGB">
<feFlood flood-opacity="0" result="BackgroundImageFix"/>
<feColorMatrix in="SourceAlpha" type="matrix" values="0 0 0 0 0 0 0 0 0 0 0 0 0 0 0 0 0 0 127 0"/>
<feOffset dx="5" dy="4"/>
<feColorMatrix type="matrix" values="0 0 0 0 0 0 0 0 0 0 0 0 0 0 0 0 0 0 0.4 0"/>
<feBlend mode="normal" in2="BackgroundImageFix" result="effect1_dropShadow"/>
<feBlend mode="normal" in="SourceGraphic" in2="effect1_dropShadow" result="shape"/>
</filter>
<filter id="filter1_d" x="28" y="18" width="55" height="61" filterUnits="userSpaceOnUse" color-interpolation-filters="sRGB">
<feFlood flood-opacity="0" result="BackgroundImageFix"/>
<feColorMatrix in="SourceAlpha" type="matrix" values="0 0 0 0 0 0 0 0 0 0 0 0 0 0 0 0 0 0 127 0"/>
<feOffset dx="5" dy="4"/>
<feColorMatrix type="matrix" values="0 0 0 0 0 0 0 0 0 0 0 0 0 0 0 0 0 0 0.4 0"/>
<feBlend mode="normal" in2="BackgroundImageFix" result="effect1_dropShadow"/>
<feBlend mode="normal" in="SourceGraphic" in2="effect1_dropShadow" result="shape"/>
</filter>
<radialGradient id="paint0_radial" cx="0" cy="0" r="1" gradientUnits="userSpaceOnUse" gradientTransform="translate(72 87.5) rotate(90) scale(67 69.4453)">
<stop stop-color="#494949"/>
<stop offset="1" stop-color="#C4C4C4" stop-opacity="0"/>
</radialGradient>
</defs>
</svg>
