<svg width="143" height="143" viewBox="0 0 143 143" fill="none" xmlns="http://www.w3.org/2000/svg">
<rect width="143" height="143" rx="35" fill="#BEF0E5"/>
<g style="mix-blend-mode:color-burn">
<rect y="3" width="142" height="137" fill="url(#paint0_radial)" fill-opacity="0.37"/>
</g>
<g style="mix-blend-mode:color-burn">
<rect x="1" y="3" width="142" height="137" fill="url(#paint1_radial)" fill-opacity="0.4"/>
</g>
<g filter="url(#filter0_d)">
<path fill-rule="evenodd" clip-rule="evenodd" d="M79.5957 38H59.4041V59.6667H79.5957V38ZM79.5957 63.6667H59.4041V83.8593H79.5957V63.6667ZM83.5957 83.8593V63.6667H105V83.8593H83.5957ZM79.5957 87.8593H59.4041V109H79.5957V87.8593ZM83.5957 109V87.8593H105V104C105 106.761 102.761 109 100 109H83.5957ZM83.5957 59.6667V38H100C102.761 38 105 40.2386 105 43V59.6667H83.5957ZM39 38H55.4041V59.6667H34V43C34 40.2386 36.2386 38 39 38ZM34 63.6667H55.4041V83.8593H34V63.6667ZM34 87.8593H55.4041V109H39C36.2386 109 34 106.761 34 104V87.8593Z" fill="white"/>
</g>
<rect x="49" y="28" width="68" height="66" stroke="black" stroke-width="4"/>
<rect x="108" y="37" width="18" height="18" rx="9" transform="rotate(-90 108 37)" fill="#53A4F9"/>
<rect x="108" y="103" width="18" height="18" rx="9" transform="rotate(-90 108 103)" fill="#53A4F9"/>
<rect x="40" y="37" width="18" height="18" rx="9" transform="rotate(-90 40 37)" fill="#53A4F9"/>
<rect x="40" y="103" width="18" height="18" rx="9" transform="rotate(-90 40 103)" fill="#53A4F9"/>
<defs>
<filter id="filter0_d" x="34" y="38" width="75" height="74" filterUnits="userSpaceOnUse" color-interpolation-filters="sRGB">
<feFlood flood-opacity="0" result="BackgroundImageFix"/>
<feColorMatrix in="SourceAlpha" type="matrix" values="0 0 0 0 0 0 0 0 0 0 0 0 0 0 0 0 0 0 127 0"/>
<feOffset dx="4" dy="3"/>
<feColorMatrix type="matrix" values="0 0 0 0 0 0 0 0 0 0 0 0 0 0 0 0 0 0 0.4 0"/>
<feBlend mode="normal" in2="BackgroundImageFix" result="effect1_dropShadow"/>
<feBlend mode="normal" in="SourceGraphic" in2="effect1_dropShadow" result="shape"/>
</filter>
<radialGradient id="paint0_radial" cx="0" cy="0" r="1" gradientUnits="userSpaceOnUse" gradientTransform="translate(71 87.5) rotate(90) scale(67 69.4453)">
<stop stop-color="#494949"/>
<stop offset="1" stop-color="#C4C4C4" stop-opacity="0"/>
</radialGradient>
<radialGradient id="paint1_radial" cx="0" cy="0" r="1" gradientUnits="userSpaceOnUse" gradientTransform="translate(72 87.5) rotate(90) scale(67 69.4453)">
<stop stop-color="#494949"/>
<stop offset="1" stop-color="#C4C4C4" stop-opacity="0"/>
</radialGradient>
</defs>
</svg>
