<svg width="266" height="34" viewBox="0 0 266 34" fill="none" xmlns="http://www.w3.org/2000/svg">
<path d="M8.69531 25L3.60938 11.7109H3.52734C3.62305 12.7637 3.6709 14.0146 3.6709 15.4639V25H2.06104V10.0088H4.68604L9.43359 22.375H9.51562L14.3042 10.0088H16.9087V25H15.1655V15.3408C15.1655 14.2334 15.2134 13.0303 15.3091 11.7314H15.2271L10.1001 25H8.69531ZM27.8955 25L27.5572 23.4004H27.4751C26.9146 24.1045 26.354 24.583 25.7935 24.8359C25.2398 25.082 24.5459 25.2051 23.712 25.2051C22.5977 25.2051 21.7227 24.918 21.087 24.3438C20.458 23.7695 20.1436 22.9526 20.1436 21.8931C20.1436 19.6235 21.9585 18.4341 25.5884 18.3247L27.4956 18.2632V17.5659C27.4956 16.6841 27.3042 16.0347 26.9214 15.6177C26.5454 15.1938 25.9405 14.9819 25.1065 14.9819C24.17 14.9819 23.1104 15.269 21.9278 15.8433L21.4048 14.541C21.9585 14.2402 22.5635 14.0044 23.2198 13.8335C23.8829 13.6626 24.5459 13.5771 25.209 13.5771C26.5489 13.5771 27.5401 13.8745 28.1827 14.4692C28.8321 15.064 29.1568 16.0176 29.1568 17.3301V25H27.8955ZM24.0503 23.8003C25.1099 23.8003 25.9405 23.5098 26.542 22.9287C27.1504 22.3477 27.4546 21.5342 27.4546 20.4883V19.4731L25.7525 19.5449C24.399 19.5928 23.4214 19.8047 22.8199 20.1807C22.2251 20.5498 21.9278 21.1274 21.9278 21.9136C21.9278 22.5288 22.1123 22.9971 22.4815 23.3184C22.8575 23.6396 23.3804 23.8003 24.0503 23.8003ZM40.5333 23.4927H40.441C39.6549 24.6343 38.4791 25.2051 36.9137 25.2051C35.4439 25.2051 34.2989 24.7026 33.4786 23.6978C32.6651 22.6929 32.2584 21.2642 32.2584 19.4116C32.2584 17.5591 32.6685 16.1201 33.4888 15.0947C34.3092 14.0693 35.4508 13.5566 36.9137 13.5566C38.4381 13.5566 39.607 14.1104 40.4205 15.2178H40.5538L40.482 14.4077L40.441 13.6182V9.04492H42.1431V25H40.7589L40.5333 23.4927ZM37.129 23.7798C38.2911 23.7798 39.1319 23.4653 39.6514 22.8364C40.1778 22.2007 40.441 21.1787 40.441 19.7705V19.4116C40.441 17.8188 40.1744 16.6841 39.6412 16.0073C39.1148 15.3237 38.2706 14.9819 37.1085 14.9819C36.1104 14.9819 35.3448 15.3716 34.8116 16.1509C34.2852 16.9233 34.0221 18.0171 34.0221 19.4321C34.0221 20.8677 34.2852 21.9512 34.8116 22.6826C35.338 23.4141 36.1104 23.7798 37.129 23.7798ZM50.7203 25.2051C49.0592 25.2051 47.7467 24.6992 46.7828 23.6875C45.8258 22.6758 45.3473 21.271 45.3473 19.4731C45.3473 17.6616 45.7916 16.2227 46.6803 15.1562C47.5758 14.0898 48.7755 13.5566 50.2794 13.5566C51.6876 13.5566 52.8019 14.0215 53.6222 14.9512C54.4425 15.874 54.8527 17.0942 54.8527 18.6118V19.6885H47.111C47.1451 21.0078 47.4767 22.0093 48.1056 22.6929C48.7413 23.3765 49.6334 23.7183 50.7819 23.7183C51.9918 23.7183 53.1881 23.4653 54.3707 22.9595V24.4771C53.7692 24.7368 53.1984 24.9214 52.6583 25.0308C52.1251 25.147 51.4791 25.2051 50.7203 25.2051ZM50.2589 14.9819C49.3566 14.9819 48.6354 15.2759 48.0953 15.8638C47.5621 16.4517 47.2477 17.2651 47.152 18.3042H53.0275C53.0275 17.231 52.7882 16.4106 52.3097 15.8433C51.8312 15.269 51.1476 14.9819 50.2589 14.9819ZM68.8693 13.5771C70.3459 13.5771 71.4909 14.083 72.3044 15.0947C73.1247 16.0996 73.5349 17.5249 73.5349 19.3706C73.5349 21.2163 73.1213 22.6519 72.2941 23.6772C71.4738 24.6958 70.3322 25.2051 68.8693 25.2051C68.1379 25.2051 67.468 25.0718 66.8596 24.8052C66.258 24.5317 65.7521 24.1147 65.342 23.5542H65.2189L64.8601 25H63.6398V9.04492H65.342V12.9209C65.342 13.7891 65.3146 14.5684 65.26 15.2588H65.342C66.135 14.1377 67.3107 13.5771 68.8693 13.5771ZM68.6232 15.0024C67.4611 15.0024 66.6237 15.3374 66.111 16.0073C65.5983 16.6704 65.342 17.7915 65.342 19.3706C65.342 20.9497 65.6052 22.0811 66.1315 22.7646C66.6579 23.4414 67.5021 23.7798 68.6643 23.7798C69.7102 23.7798 70.4895 23.4004 71.0021 22.6416C71.5148 21.876 71.7712 20.7788 71.7712 19.3501C71.7712 17.8872 71.5148 16.7969 71.0021 16.0791C70.4895 15.3613 69.6965 15.0024 68.6232 15.0024ZM74.9446 13.7617H76.7698L79.2307 20.1704C79.7707 21.6333 80.1057 22.6895 80.2356 23.3389H80.3176C80.4065 22.9902 80.5911 22.3955 80.8713 21.5547C81.1584 20.707 82.0881 18.1094 83.6604 13.7617H85.4856L80.656 26.5586C80.1775 27.8232 79.6169 28.7188 78.9744 29.2451C78.3386 29.7783 77.5559 30.0449 76.6262 30.0449C76.1067 30.0449 75.594 29.9868 75.0881 29.8706V28.5068C75.4641 28.5889 75.8845 28.6299 76.3494 28.6299C77.5183 28.6299 78.3523 27.9736 78.8513 26.6611L79.4768 25.0615L74.9446 13.7617Z" fill="white"/>
<path fill-rule="evenodd" clip-rule="evenodd" d="M109.352 13.2797C109.352 12.1293 108.41 11.0862 106.943 11.0862C105.475 11.0862 104.533 11.9452 104.533 13.065C104.533 14.3228 105.105 15.0438 106.742 15.5347L108.426 16.0102C110.418 16.5471 111.994 17.8663 111.994 20.3666C111.994 22.5602 110.31 24.8611 107.051 24.8611C104.193 24.8611 102.046 22.7136 102 20.3666L102.108 20.1519L103.993 19.5229L104.209 19.7377C104.162 21.6091 105.599 22.6675 107.051 22.6675C108.843 22.6675 109.785 21.7318 109.785 20.3666C109.785 18.9094 108.611 18.2958 107.576 18.0503C107.066 17.9276 106.418 17.7435 105.892 17.5748C103.9 16.9306 102.324 15.5653 102.324 13.065C102.324 10.764 104.301 9 106.927 9C109.553 9 111.577 10.7794 111.577 13.2797L111.36 13.4945H109.569L109.352 13.2797Z" fill="white"/>
<path fill-rule="evenodd" clip-rule="evenodd" d="M115.133 9.53751L115.349 9.32275H124.385L124.601 9.53751V11.1942L124.385 11.4089H120.987V24.3555L120.771 24.555H118.963L118.763 24.3555V11.4089H115.349L115.133 11.1942V9.53751Z" fill="white"/>
<path fill-rule="evenodd" clip-rule="evenodd" d="M133.109 15.7961C134.376 15.7961 135.534 15.0598 135.534 13.6025C135.534 12.1452 134.376 11.4089 133.109 11.4089H130.375V15.7961H133.109ZM128.167 9.53751L128.383 9.32275H133.001C135.519 9.32275 137.728 10.8874 137.728 13.6025C137.728 16.1335 135.519 17.6675 133.187 17.7595L138.037 24.1408V24.555H135.72L135.504 24.3402L130.669 17.7595H130.36V24.3402L130.144 24.555H128.352L128.136 24.3402V9.52217L128.167 9.53751Z" fill="white"/>
<path fill-rule="evenodd" clip-rule="evenodd" d="M140.986 9.53751L141.203 9.32275H150.022L150.239 9.53751V11.1942L150.022 11.4089H143.195V15.7961H149.822L150.022 15.9955V17.6675L149.822 17.8822H143.195V22.4688H150.022L150.239 22.6835V24.3555L150.022 24.555H141.203L140.986 24.3555V9.53751Z" fill="white"/>
<path fill-rule="evenodd" clip-rule="evenodd" d="M153.811 9.53751L154.027 9.32275H155.819L156.019 9.53751V22.4688H162.847L163.063 22.6835V24.3555L162.847 24.555H154.027L153.811 24.3555V9.53751Z" fill="white"/>
<path fill-rule="evenodd" clip-rule="evenodd" d="M176.202 9.32275L176.294 9.53751L170.409 16.7318L176.511 24.3555L176.402 24.555H173.993L173.777 24.3555L168.834 18.097V24.3555L168.633 24.555H166.841L166.625 24.3555V9.53751L166.841 9.32275H168.648L168.834 9.53751V15.5813L173.56 9.53751L173.777 9.32275H176.202Z" fill="white"/>
<path fill-rule="evenodd" clip-rule="evenodd" d="M182.181 18.7103H185.749L183.957 12.0376L182.165 18.7103H182.181ZM182.814 9.30713H185.131L185.347 9.52188L189.548 24.3399L189.44 24.5547H187.448L187.232 24.3399L186.32 20.7965H181.609L180.698 24.3399L180.482 24.5547H178.489L178.381 24.3399L182.582 9.52188L182.814 9.30713Z" fill="white"/>
<path fill-rule="evenodd" clip-rule="evenodd" d="M214.664 9.3208L214.772 9.53555L208.887 16.7298L214.973 24.3536L214.88 24.553H212.455L212.254 24.3536L207.311 18.095V24.3536L207.095 24.553H205.303L205.103 24.3536V9.53555L205.303 9.3208H207.111L207.311 9.53555V15.5793L212.038 9.53555L212.254 9.3208H214.664Z" fill="white"/>
<path fill-rule="evenodd" clip-rule="evenodd" d="M222.76 22.4668C224.027 22.4668 225.185 21.7305 225.185 20.1659C225.185 18.6013 224.027 17.865 222.76 17.865H220.135V22.4515H222.76V22.4668ZM218.142 9.3208H225.927L226.143 9.53556V11.2076L225.927 11.4223H220.15V15.8095H222.668C225.402 15.8095 227.394 17.5888 227.394 20.1966C227.394 22.8043 225.402 24.5837 222.668 24.5837H218.142L217.926 24.369V9.55089L218.142 9.33614V9.3208Z" fill="white"/>
<path fill-rule="evenodd" clip-rule="evenodd" d="M242.1 9.30713V11.8228L244.617 9.30713H242.1Z" fill="white"/>
<path fill-rule="evenodd" clip-rule="evenodd" d="M252.31 9.30713L242.1 19.4619V22.0083L254.874 9.30713H252.31Z" fill="white"/>
<path fill-rule="evenodd" clip-rule="evenodd" d="M262.566 9.30713L247.213 24.5547H249.777L265.13 9.30713H262.566Z" fill="white"/>
<path fill-rule="evenodd" clip-rule="evenodd" d="M257.467 24.5537H260.031L265.144 19.4917V16.9453L257.467 24.5537Z" fill="white"/>
<path fill-rule="evenodd" clip-rule="evenodd" d="M247.197 9.30713L242.1 14.3692V16.9155L249.745 9.30713H247.197Z" fill="white"/>
<path fill-rule="evenodd" clip-rule="evenodd" d="M257.438 9.30713L242.1 24.5547H244.648L260.002 9.30713H257.438Z" fill="white"/>
<path fill-rule="evenodd" clip-rule="evenodd" d="M252.34 24.5542H254.904L265.145 14.3994V11.853L252.34 24.5542Z" fill="white"/>
<path fill-rule="evenodd" clip-rule="evenodd" d="M262.594 24.5543H265.142V22.0386L262.594 24.5543Z" fill="white"/>
<path fill-rule="evenodd" clip-rule="evenodd" d="M262.611 9.30713L265.145 11.8075V9.30713H262.611Z" fill="white"/>
<path fill-rule="evenodd" clip-rule="evenodd" d="M253.618 9.30713V10.565L265.141 21.993V19.4466L254.916 9.30713H253.618Z" fill="white"/>
<path fill-rule="evenodd" clip-rule="evenodd" d="M253.618 20.751L257.464 24.5552H260.028L253.618 18.2046V20.751Z" fill="white"/>
<path fill-rule="evenodd" clip-rule="evenodd" d="M257.484 9.30713L265.146 16.9002V14.3692L260.048 9.30713H257.484Z" fill="white"/>
<path fill-rule="evenodd" clip-rule="evenodd" d="M253.618 15.6577L262.592 24.5546H265.141V24.5393L253.618 13.1113V15.6577Z" fill="white"/>
</svg>
