<svg width="270" height="115" viewBox="0 0 270 115" fill="none" xmlns="http://www.w3.org/2000/svg">
<g clip-path="url(#clip0)">
<path fill-rule="evenodd" clip-rule="evenodd" d="M16.0003 43.1344C18.5037 40.0867 25.7964 33.371 34.9395 29.5832C44.0825 25.7953 54.0963 24.9572 57.9605 25.0116V21.2565C47.1845 21.4197 38.139 23.4739 29.8781 29.2565C20.2859 35.9711 17.3729 40.2853 16.0806 42.1993L16.0003 42.3181C15.837 42.5902 15.6084 43.1344 16.0003 43.1344ZM34.1222 34.9713C22.628 40.0653 15.2377 46.5089 13.0608 49.1756C12.4077 49.3063 12.7886 48.577 13.0608 48.196C14.258 46.5089 18.7752 41.5673 27.2651 35.2978C35.7551 29.0283 51.2655 27.0255 57.9595 26.8078V30.8895C53.388 30.8895 39.9998 32.0324 34.1222 34.9713ZM11.5924 53.4204C14.3136 50.6993 22.205 44.7672 32.0011 41.5018C38.8584 39.0528 55.3485 37.7466 58.1239 37.7466V33.3384C46.532 33.3384 34.1563 35.3956 25.1438 41.012C16.1314 46.6284 12.5176 50.8625 11.2659 52.6041C11.0482 52.985 10.8088 53.6817 11.5924 53.4204ZM35.2659 47.3797C23.6412 49.3389 14.204 54.4547 10.9386 57.0126C10.0243 57.4045 10.34 56.5228 10.6121 56.033C13.17 53.5839 19.1023 48.1634 28.2454 44.7674C39.0211 40.765 52.5722 39.9782 58.2864 39.8693V45.4204C50.7765 45.4204 46.8906 45.4204 35.2659 47.3797ZM10.4474 60.1146C12.4066 59.0261 18.7088 56.5227 28.2437 55.2165C37.7786 53.9104 52.2443 53.6927 58.285 53.7471V48.3591C49.4689 48.4136 29.5172 49.5676 20.2435 53.7471C10.9699 57.9267 9.9576 59.4614 9.9576 59.4614C9.68526 59.788 9.40198 60.376 10.4474 60.1146ZM9.7957 63.0533H58.2864V57.0124C45.225 57.0124 17.2407 57.9919 9.7957 61.9104C9.36029 62.2914 8.75077 63.0533 9.7957 63.0533ZM215.842 25.1753C217.541 25.1753 218.549 26.5556 219.136 27.7009C219.211 28.2153 219.426 28.6801 219.739 29.0492L219.747 29.0666L219.756 29.0838L219.761 29.0937L219.768 29.0822C220.214 29.5917 220.85 29.91 221.556 29.91C222.909 29.91 224.005 28.7405 224.005 27.2978C224.005 26.1175 223.272 25.12 222.264 24.7962C221.305 24.3471 218.855 23.5426 215.842 23.5426C209.006 23.5426 207.443 31.3291 207.495 35.7877H207.352V37.0939H202.779V39.3796H207.352V58.1555V58.3636C207.349 59.7049 207.231 61.9107 203.76 61.9107V63.0536H207.352V63.2169H212.577V63.0536H217.638V61.9107C216.223 61.9652 212.577 61.5516 212.577 58.1555V39.3796H219.759V37.0939H212.577V35.7877H212.414V29.4202C212.414 27.9508 213.23 25.1753 215.842 25.1753ZM101.227 25.012H107.105L111.677 25.0121V26.155C108.02 26.155 107.106 28.604 107.106 29.9101H107.105V58.2401C107.152 61.5582 109.946 61.9645 111.349 61.9105V63.0534H107.105V63.2169H101.227V63.0534H96.6551V61.9105C100.312 61.9105 101.227 59.4615 101.227 58.1554H101.227V30.8012L87.5126 63.2169H86.67L86.5547 62.5104L73.4721 32.2002V58.2378C73.5281 61.5582 76.9661 61.9647 78.3696 61.9107V63.0536H73.4721V63.2169H70.8597V63.0536H66.2877V61.9107C69.9446 61.9107 70.8592 59.4617 70.8592 58.1555H70.8597V29.91H70.8592C70.8592 28.6039 69.9446 26.1549 66.2877 26.1549V25.012H76.7369L88.775 52.9016L100.574 25.012L101.227 25.012ZM125.717 44.604H125.717V45.8067C112.322 50.6796 111.35 54.9014 111.35 57.6657C111.35 60.4413 113.473 63.5434 117.555 63.5434C120.365 63.5434 123.779 60.8837 125.717 58.9974C125.723 60.9537 126.383 63.5434 129.472 63.5434C131.954 63.5434 133.772 61.693 134.37 60.7678V59.4617C131.496 61.4209 130.669 59.8426 130.615 58.8086V44.6042H130.615C130.724 42.4817 129.962 37.9755 126.044 36.9306C121.146 35.6245 117.391 36.2775 115.432 37.9102C114.197 38.939 113.421 39.8328 113.041 40.3522C112.408 40.8908 112.002 41.7178 112.002 42.6452C112.002 44.2683 113.245 45.5841 114.778 45.5841C116.311 45.5841 117.553 44.2683 117.553 42.6452C117.553 42.4738 117.54 42.3058 117.513 42.1424L117.554 42.1552C117.533 42.1138 117.512 42.0681 117.49 42.0187C117.438 41.7654 117.355 41.5243 117.246 41.3C117.104 40.7212 117.064 40.0338 117.391 39.5429C118.044 38.5633 119.513 37.747 121.146 37.747C122.778 37.747 125.064 38.5633 125.391 40.196C125.717 41.8286 125.717 43.4612 125.717 44.604ZM125.717 57.5031V47.2722C122.403 48.4105 116.12 51.561 116.248 55.5432C116.412 60.6045 121.146 60.278 122.779 59.6249C123.715 59.2506 124.874 58.295 125.717 57.5031ZM164.902 25.012H159.351V26.1549C163.008 26.1549 164.902 28.6039 164.902 29.91V58.1555C164.902 59.4617 163.008 61.9107 159.351 61.9107V63.0536H164.902V63.2169H170.78V63.0536H175.025H178.943V63.2169H184.821V63.0536H188.413V61.9107C186.999 61.9651 184.825 61.5524 184.821 58.1664V58.1555V42.9072C185.758 41.6588 187.997 39.5429 190.698 39.5429C194.235 39.5429 195.239 42.5506 195.269 44.6691V58.1554C195.269 59.4615 195.008 61.9105 191.351 61.9105V63.0534H195.269V63.2167H200.167V63.0534H203.759V61.9105C202.348 61.9648 200.178 61.5535 200.167 58.1819V44.7675H200.168C200.168 44.7307 200.168 44.6933 200.167 44.6554V44.604H200.166C200.116 41.7801 198.761 36.4408 193.637 36.4408C189.11 36.4408 186.136 39.0555 184.821 40.8867V36.2775L183.891 36.5615L184.005 36.4406L181.476 37.2994L178.943 38.0735V38.1598L175.352 39.3795V40.5224C176.538 40.4146 178.898 40.5203 178.943 41.7916V58.1555C178.943 59.4617 178.682 61.9107 175.025 61.9107C173.61 61.9652 170.78 61.5516 170.78 58.1555V29.91C170.78 26.5141 175.079 26.1005 176.494 26.1549V25.012H170.78H164.902ZM135.84 70.7273V41.4614C135.281 40.657 133.421 40.5941 132.411 40.6858V39.5429L141.065 36.6041V40.7392C142.221 38.9341 145.504 36.2777 149.229 36.2777C153.147 36.2777 159.025 39.5431 159.025 49.6657C159.025 59.7884 150.862 63.7068 147.107 63.7068C144.417 63.7068 142.137 62.1365 141.065 61.1046V70.7273C141.065 74.1234 144.548 74.537 145.963 74.4825V75.6252H131.759V74.4825C135.415 74.4825 135.84 72.0335 135.84 70.7273ZM141.065 57.6202V43.1611C141.856 41.7934 143.828 39.5431 146.617 39.5431C150.372 39.5431 154.127 43.6248 154.127 49.6657C154.127 55.7067 151.841 61.9109 146.617 61.9109C143.329 61.9109 141.711 59.5533 141.065 57.6202ZM229.067 36.7677C219.532 37.682 217.311 43.7883 217.311 50.1558C217.311 56.5232 221.23 64.5213 230.373 64.0336C242.619 63.3805 242.945 51.1354 242.782 49.1761C242.619 47.2169 240.986 35.6248 229.067 36.7677ZM227.761 38.5637C222.21 39.5086 221.665 47.9789 222.536 52.115C223.515 58.1561 226.943 63.3806 232.33 62.2378C237.718 61.0949 237.882 53.4214 237.719 50.3193C237.555 47.2171 235.434 37.2576 227.761 38.5637ZM4.19191 60.6956L5.01203 62.6092V62.7004H5.55884L4.73868 60.6956C5.01203 60.6045 5.19426 60.4222 5.3765 60.24C5.39552 60.1829 5.41459 60.1298 5.43279 60.079C5.50177 59.8865 5.55884 59.7272 5.55884 59.5109C5.55884 59.3287 5.55879 59.1464 5.46767 58.9641C5.37655 58.7819 5.28543 58.5997 5.10319 58.5085C5.01208 58.4174 4.8298 58.3263 4.64755 58.3263C4.46529 58.2351 4.28304 58.2351 4.10078 58.2351H2.46051V62.6092H3.00725V60.6956H4.19191ZM4.37415 60.2399H4.00965V60.3311H3.00725V58.7819H4.10078H4.37415C4.46527 58.7819 4.55642 58.7819 4.64755 58.8731C4.76905 58.9338 4.80955 58.9945 4.85004 59.0553C4.87031 59.0857 4.89055 59.1161 4.92091 59.1464C5.01203 59.2375 5.01203 59.4198 5.01203 59.5109C5.01203 59.5565 4.98926 59.6021 4.96649 59.6476C4.94368 59.6932 4.92091 59.7388 4.92091 59.7843C4.87537 59.8299 4.85258 59.8754 4.8298 59.921C4.80702 59.9665 4.78424 60.0121 4.73868 60.0577C4.64755 60.1488 4.46527 60.2399 4.37415 60.2399ZM3.91843 64.5227C1.7314 64.5227 0 62.7913 0 60.6043C0 58.4172 1.7314 56.6858 3.91843 56.6858C6.10545 56.6858 7.83691 58.4172 7.83691 60.6043C7.83691 62.7913 6.10545 64.5227 3.91843 64.5227ZM3.91843 57.3237C2.0959 57.3237 0.637896 58.7817 0.637896 60.6043C0.637896 62.4268 2.0959 63.8848 3.91843 63.8848C5.74098 63.8848 7.19903 62.4268 7.19903 60.6043C7.19903 58.7817 5.74098 57.3237 3.91843 57.3237ZM182.656 92.3292C182.863 92.0062 182.977 91.6345 182.996 91.2142H181.549C181.538 91.5572 181.444 91.8072 181.267 91.9644C181.091 92.122 180.835 92.2008 180.501 92.2008C180.105 92.2008 179.826 92.0626 179.663 91.7863C179.503 91.51 179.423 91.0498 179.423 90.4057V89.979C179.431 89.3845 179.519 88.952 179.688 88.6815C179.856 88.4106 180.122 88.2753 180.484 88.2753C180.84 88.2753 181.106 88.3551 181.28 88.5157C181.454 88.6757 181.547 88.9399 181.558 89.3072H183.008C182.948 88.6305 182.695 88.0997 182.25 87.7154C181.805 87.3286 181.216 87.135 180.484 87.135C179.975 87.135 179.528 87.2566 179.141 87.4999C178.754 87.7402 178.457 88.0832 178.25 88.5278C178.045 88.97 177.943 89.4872 177.943 90.0783V90.377C177.943 91.3193 178.171 92.049 178.627 92.5657C179.082 93.0823 179.707 93.3411 180.501 93.3411C180.981 93.3411 181.408 93.2526 181.782 93.0755C182.157 92.8989 182.449 92.6498 182.656 92.3292ZM109.692 90.3974C109.692 90.989 109.59 91.5085 109.386 91.9561C109.181 92.4012 108.888 92.7442 108.506 92.9845C108.128 93.2219 107.691 93.3411 107.196 93.3411C106.707 93.3411 106.271 93.2219 105.887 92.9845C105.505 92.7442 105.21 92.4027 104.999 91.9605C104.792 91.5183 104.687 91.0084 104.684 90.431V90.0909C104.684 89.5023 104.788 88.9827 104.995 88.5322C105.205 88.0817 105.499 87.7378 105.878 87.4999C106.26 87.2596 106.696 87.1394 107.188 87.1394C107.68 87.1394 108.115 87.2581 108.494 87.496C108.875 87.7305 109.17 88.0705 109.377 88.5157C109.584 88.9579 109.689 89.4731 109.692 90.0617V90.3974ZM108.643 90.0826C108.643 89.4137 108.516 88.901 108.262 88.5444C108.01 88.1883 107.653 88.0097 107.188 88.0097C106.735 88.0097 106.38 88.1883 106.123 88.5444C105.869 88.8985 105.739 89.4001 105.733 90.0496V90.3974C105.733 91.061 105.861 91.5737 106.119 91.9357C106.379 92.2976 106.738 92.4786 107.196 92.4786C107.661 92.4786 108.018 92.302 108.266 91.9478C108.518 91.5941 108.643 91.0775 108.643 90.3974V90.0826ZM68.7264 88.0676H70.6082V87.2221H65.8202V88.0676H67.6858V93.2579H68.7264V88.0676ZM76.213 93.2579H77.2575V87.2221H76.213V89.7343H73.5144V87.2221H72.4656V93.2579H73.5144V90.5759H76.213V93.2579ZM83.0904 90.5633H80.6113V92.4207H83.5093V93.2579H79.5624V87.2221H83.4801V88.0676H80.6113V89.7343H83.0904V90.5633ZM88.6622 93.2579H89.7067V87.2221H88.6622V93.2579ZM96.8454 93.2579H95.7965L93.1057 88.9759V93.2579H92.0574V87.2221H93.1057L95.8048 91.5212V87.2221H96.8454V93.2579ZM100.195 90.7005H102.624V89.8627H100.195V88.0676H102.98V87.2221H99.1459V93.2579H100.195V90.7005ZM112.847 90.9325H114.016L115.226 93.2579H116.35V93.2039L114.994 90.6878C115.343 90.5414 115.613 90.3327 115.807 90.0617C116.003 89.7883 116.101 89.4497 116.101 89.0464C116.101 88.4548 115.912 88.0029 115.533 87.6906C115.154 87.3783 114.617 87.2221 113.921 87.2221H111.798V93.2579H112.847V90.9325ZM113.924 90.0909H112.847V88.0676H113.954C114.318 88.0734 114.592 88.1644 114.774 88.3415C114.96 88.5181 115.052 88.7686 115.052 89.0917C115.052 89.4015 114.953 89.6458 114.754 89.8258C114.555 90.0024 114.279 90.0909 113.924 90.0909ZM119.517 87.2221L121.258 91.8486L122.995 87.2221H124.35V93.2579H123.306V91.2682L123.409 88.6066L121.627 93.2579H120.877L119.098 88.611L119.202 91.2682V93.2579H118.157V87.2221H119.517ZM127.771 91.8525H130.109L130.602 93.2579H131.696L129.412 87.2221H128.471L126.191 93.2579H127.281L127.771 91.8525ZM129.815 91.007H128.065L128.94 88.503L129.815 91.007ZM137.309 88.0676H135.427V93.2579H134.387V88.0676H132.521V87.2221H137.309V88.0676ZM139.229 93.2579H140.274V87.2221H139.229V93.2579ZM147.441 90.3974C147.441 90.989 147.339 91.5085 147.134 91.9561C146.93 92.4012 146.637 92.7442 146.255 92.9845C145.877 93.2219 145.44 93.3411 144.945 93.3411C144.456 93.3411 144.019 93.2219 143.636 92.9845C143.254 92.7442 142.958 92.4027 142.748 91.9605C142.541 91.5183 142.436 91.0084 142.433 90.431V90.0909C142.433 89.5023 142.537 88.9827 142.744 88.5322C142.954 88.0817 143.248 87.7378 143.627 87.4999C144.008 87.2596 144.445 87.1394 144.937 87.1394C145.429 87.1394 145.864 87.2581 146.243 87.496C146.624 87.7305 146.918 88.0705 147.126 88.5157C147.333 88.9579 147.438 89.4731 147.441 90.0617V90.3974ZM146.392 90.0826C146.392 89.4137 146.265 88.901 146.011 88.5444C145.759 88.1883 145.402 88.0097 144.937 88.0097C144.484 88.0097 144.129 88.1883 143.872 88.5444C143.618 88.8985 143.488 89.4001 143.482 90.0496V90.3974C143.482 91.061 143.61 91.5737 143.868 91.9357C144.127 92.2976 144.486 92.4786 144.945 92.4786C145.41 92.4786 145.766 92.302 146.015 91.9478C146.267 91.5941 146.392 91.0775 146.392 90.3974V90.0826ZM153.286 93.2579H154.335V87.2221H153.294V91.5212L150.596 87.2221H149.547V93.2579H150.596V88.9759L153.286 93.2579ZM159.654 93.2579V87.2221H161.598C162.131 87.2221 162.611 87.3437 163.036 87.587C163.462 87.8273 163.794 88.1688 164.031 88.611C164.272 89.0503 164.393 89.5436 164.396 90.0909V90.3687C164.396 90.9213 164.279 91.4176 164.044 91.8568C163.812 92.2937 163.483 92.6362 163.057 92.8848C162.634 93.131 162.162 93.255 161.64 93.2579H159.654ZM161.109 88.3454V92.1385H161.614C162.032 92.1385 162.352 91.9906 162.576 91.6953C162.8 91.3966 162.912 90.9544 162.912 90.3687V90.1074C162.912 89.5241 162.8 89.0848 162.576 88.7891C162.352 88.4933 162.026 88.3454 161.598 88.3454H161.109ZM166.94 93.2579H168.39V87.2221H166.94V93.2579ZM174.213 91.6535C174.213 91.4409 174.137 91.275 173.986 91.1563C173.836 91.0376 173.572 90.9145 173.194 90.7871C172.815 90.6601 172.506 90.537 172.265 90.4183C171.483 90.034 171.092 89.5061 171.092 88.8348C171.092 88.5006 171.189 88.2063 171.382 87.9518C171.578 87.695 171.855 87.496 172.211 87.3549C172.567 87.2109 172.968 87.1394 173.413 87.1394C173.847 87.1394 174.236 87.2167 174.578 87.3714C174.924 87.5261 175.192 87.7475 175.382 88.0345C175.573 88.3191 175.668 88.6455 175.668 89.0128H174.218C174.218 88.7672 174.142 88.5765 173.989 88.4407C173.84 88.3055 173.637 88.2379 173.38 88.2379C173.121 88.2379 172.914 88.2958 172.763 88.412C172.613 88.5254 172.539 88.6704 172.539 88.847C172.539 89.0021 172.621 89.1427 172.787 89.2702C172.953 89.3943 173.245 89.5241 173.662 89.6599C174.079 89.7922 174.422 89.9362 174.69 90.0909C175.342 90.4665 175.668 90.9851 175.668 91.6452C175.668 92.1731 175.469 92.588 175.071 92.8892C174.673 93.1903 174.128 93.3411 173.434 93.3411C172.945 93.3411 172.501 93.254 172.103 93.0799C171.708 92.9028 171.41 92.6625 171.208 92.3584C171.009 92.0514 170.91 91.6992 170.91 91.3013H172.368C172.368 91.6248 172.452 91.8637 172.618 92.0184C172.786 92.1706 173.058 92.2465 173.434 92.2465C173.675 92.2465 173.864 92.1954 174.002 92.0933C174.143 91.9882 174.213 91.8418 174.213 91.6535ZM190.494 90.3643C190.494 90.953 190.385 91.474 190.166 91.9274C189.948 92.3803 189.637 92.7301 189.234 92.9763C188.833 93.2195 188.375 93.3411 187.861 93.3411C187.347 93.3411 186.891 93.2234 186.493 92.9884C186.095 92.751 185.784 92.4124 185.561 91.9731C185.339 91.5333 185.223 91.0293 185.212 90.4597V90.1201C185.212 89.5285 185.32 89.0075 185.536 88.557C185.754 88.1036 186.065 87.7543 186.468 87.5081C186.875 87.2625 187.336 87.1394 187.853 87.1394C188.364 87.1394 188.82 87.261 189.221 87.5043C189.622 87.7475 189.933 88.0939 190.153 88.5444C190.378 88.9924 190.491 89.5061 190.494 90.0865V90.3643ZM189.014 90.1113C189.014 89.512 188.913 89.0571 188.711 88.7477C188.512 88.4354 188.226 88.2792 187.853 88.2792C187.123 88.2792 186.738 88.8265 186.696 89.9211L186.692 90.3643C186.692 90.9559 186.79 91.4103 186.986 91.7284C187.182 92.0461 187.474 92.2052 187.861 92.2052C188.229 92.2052 188.512 92.049 188.711 91.7367C188.91 91.4244 189.011 90.9753 189.014 90.3891V90.1113ZM196.395 87.2221L195.193 91.6165L193.995 87.2221H192.382L194.397 93.2579H195.989L198.02 87.2221H196.395ZM203.905 90.7005H201.617V92.1385H204.319V93.2579H200.162V87.2221H204.328V88.3454H201.617V89.618H203.905V90.7005ZM208.065 91.1271H208.853L209.918 93.2579H211.477V93.1957L210.217 90.7623C210.579 90.591 210.844 90.3672 211.013 90.0909C211.184 89.8146 211.27 89.4663 211.27 89.0464C211.27 88.466 211.068 88.0165 210.665 87.6989C210.261 87.3812 209.701 87.2221 208.986 87.2221H206.61V93.2579H208.065V91.1271ZM208.986 90.0038H208.065V88.3454H208.986C209.259 88.3454 209.466 88.4203 209.608 88.5697C209.749 88.7161 209.819 88.919 209.819 89.1787C209.819 89.4385 209.749 89.6419 209.608 89.7883C209.469 89.9318 209.262 90.0038 208.986 90.0038ZM216.969 87.2221H218.539L216.595 91.0901V93.2579H215.119V91.0901L213.179 87.2221H214.742L215.857 89.8423L216.969 87.2221ZM227.902 92.8021C228.317 92.4401 228.555 91.9371 228.616 91.293H227.571C227.516 91.724 227.384 92.0325 227.177 92.2173C226.97 92.4027 226.66 92.4951 226.248 92.4951C225.798 92.4951 225.455 92.3239 225.22 91.9814C224.988 91.6384 224.872 91.1412 224.872 90.4889V89.9542C224.878 89.3101 225.002 88.8221 225.245 88.4908C225.491 88.1561 225.842 87.9893 226.298 87.9893C226.691 87.9893 226.988 88.0856 227.19 88.2792C227.394 88.4699 227.521 88.7823 227.571 89.2162H228.616C228.549 88.5556 228.313 88.0443 227.907 87.6823C227.501 87.3204 226.964 87.1394 226.298 87.1394C225.804 87.1394 225.367 87.2566 224.988 87.4916C224.612 87.7266 224.324 88.0608 224.122 88.4947C223.92 88.9287 223.819 89.4303 223.819 89.9994V90.5633C223.828 91.1189 223.931 91.6068 224.13 92.0266C224.329 92.447 224.611 92.7714 224.976 93.0011C225.343 93.2278 225.768 93.3411 226.248 93.3411C226.937 93.3411 227.488 93.1611 227.902 92.8021ZM235.435 90.3974C235.435 90.989 235.332 91.5085 235.128 91.9561C234.924 92.4012 234.63 92.7442 234.249 92.9845C233.871 93.2219 233.434 93.3411 232.939 93.3411C232.45 93.3411 232.014 93.2219 231.629 92.9845C231.248 92.7442 230.952 92.4027 230.742 91.9605C230.535 91.5183 230.43 91.0084 230.427 90.431V90.0909C230.427 89.5023 230.531 88.9827 230.738 88.5322C230.948 88.0817 231.243 87.7378 231.621 87.4999C232.002 87.2596 232.439 87.1394 232.931 87.1394C233.423 87.1394 233.858 87.2581 234.237 87.496C234.618 87.7305 234.913 88.0705 235.12 88.5157C235.327 88.9579 235.432 89.4731 235.435 90.0617V90.3974ZM234.386 90.0826C234.386 89.4137 234.259 88.901 234.005 88.5444C233.753 88.1883 233.395 88.0097 232.931 88.0097C232.478 88.0097 232.123 88.1883 231.866 88.5444C231.611 88.8985 231.481 89.4001 231.476 90.0496V90.3974C231.476 91.061 231.605 91.5737 231.861 91.9357C232.121 92.2976 232.481 92.4786 232.939 92.4786C233.404 92.4786 233.76 92.302 234.009 91.9478C234.26 91.5941 234.386 91.0775 234.386 90.3974V90.0826ZM240.642 91.8486L238.9 87.2221H237.541V93.2579H238.586V91.2682L238.482 88.611L240.26 93.2579H241.011L242.793 88.6066L242.69 91.2682V93.2579H243.734V87.2221H242.379L240.642 91.8486ZM247.088 91.0152V93.2579H246.039V87.2221H248.348C249.023 87.2221 249.557 87.3977 249.952 87.7485C250.35 88.0997 250.549 88.5638 250.549 89.1418C250.549 89.7329 250.355 90.1931 249.965 90.5219C249.578 90.8508 249.035 91.0152 248.336 91.0152H247.088ZM247.088 90.1736H248.348C248.721 90.1736 249.006 90.0865 249.202 89.9124C249.398 89.7358 249.497 89.4813 249.497 89.15C249.497 88.8236 249.397 88.5638 249.198 88.3707C248.999 88.1741 248.725 88.0734 248.377 88.0676H247.088V90.1736ZM252.344 93.2579L252.833 91.8525H255.171L255.665 93.2579H256.759L254.475 87.2221H253.534L251.254 93.2579H252.344ZM254.002 88.503L254.877 91.007H253.128L254.002 88.503ZM263.297 93.2579H262.248L259.558 88.9759V93.2579H258.509V87.2221H259.558L262.256 91.5212V87.2221H263.297V93.2579ZM268.839 87.2221L267.451 90.0826L266.062 87.2221H264.897L266.924 91.0361V93.2579H267.977V91.0361L270 87.2221H268.839Z" fill="white"/>
</g>
<defs>
<clipPath id="clip0">
<rect width="270" height="72.4865" fill="white" transform="translate(0 21.2565)"/>
</clipPath>
</defs>
</svg>
