<svg width="270" height="115" viewBox="0 0 270 115" fill="none" xmlns="http://www.w3.org/2000/svg">
<g clip-path="url(#clip0)">
<path d="M80.6959 60.4346L73.8509 53.6674H65.4648V61.7252L72.608 68.8447V60.4346H80.6959Z" fill="white"/>
<path d="M155.036 57.1022V77.5354C149.415 81.6374 140.832 84.4477 133.464 84.4477C117.36 84.4477 105.131 72.7506 105.131 57.3304C105.131 41.9865 117.588 30.365 134.148 30.365C142.048 30.365 150.099 33.4034 155.492 38.1127L148.732 46.6965C144.781 43.0505 139.313 40.7714 134.148 40.7714C124.728 40.7714 117.436 47.9875 117.436 57.3304C117.436 66.7492 124.805 73.9661 134.223 73.9661C137.413 73.9661 141.212 72.8265 144.63 71.0795V57.1026H155.036V57.1022Z" fill="white"/>
<path d="M165.516 83.9161V30.7447H177.517V83.9161H165.516Z" fill="white"/>
<path d="M228.939 35.9849L224.305 45.9353C218.684 42.5931 212 40.4663 207.746 40.4663C203.721 40.4663 200.986 41.9096 200.986 44.7962C200.986 54.5951 229.319 49.1261 229.243 68.2675C229.243 78.674 220.203 84.2949 208.43 84.2949C199.695 84.2949 190.959 80.9526 184.959 75.8633L189.744 66.0648C195.214 70.9266 202.961 74.0407 208.582 74.0407C213.52 74.0407 216.482 72.2177 216.482 68.9514C216.482 58.925 188.149 64.7737 188.149 45.9357C188.149 36.2891 196.429 30.2121 208.734 30.2121C216.178 30.2118 223.622 32.4908 228.939 35.9849V35.9849Z" fill="white"/>
<path d="M84.1192 63.8181H75.9922V72.217L89.8206 85.9995H98.5495V78.0841L84.1192 63.8181Z" fill="white"/>
<path d="M84.1161 63.8172L80.6934 60.4336H72.6055V68.8437L75.9891 72.216V63.8172H84.1161Z" fill="white"/>
<path d="M73.7548 74.2938C72.5295 74.5757 71.2554 74.7287 69.9411 74.7287C60.5403 74.7287 52.5452 66.9983 52.5452 56.9753C52.5452 46.9524 60.4523 39.3923 69.9411 39.3923C79.4298 39.3923 86.9854 46.952 86.9854 56.9753C86.9854 58.6055 86.7824 60.174 86.4068 61.6598L95.1079 70.3594C97.3513 66.4288 98.6062 61.8586 98.6062 56.9084C98.6062 41.4604 86.2782 29.8938 69.7651 29.8938C53.3276 29.8938 41 41.3845 41 56.9084C41 72.5083 53.328 84.2276 69.7651 84.2276C74.0085 84.2276 77.9741 83.4471 81.5265 82.0268L73.7548 74.2938Z" fill="white"/>
<path d="M65.4648 53.6674L98.549 85.9996V78.084L84.1187 63.8182L80.6962 60.4346L73.8512 53.6674H65.4648Z" fill="white"/>
</g>
<defs>
<clipPath id="clip0">
<rect width="188.246" height="56.1058" fill="white" transform="translate(41 29.8942)"/>
</clipPath>
</defs>
</svg>
