<svg width="270" height="115" viewBox="0 0 270 115" fill="none" xmlns="http://www.w3.org/2000/svg">
<path fill-rule="evenodd" clip-rule="evenodd" d="M7 82.3402C8.67834 73.3611 15.1567 49.1595 27.6436 24.1858H40.7346C45.0983 32.2418 55.3865 55.1511 61.6299 82.3402L58.6089 83.599H51.0564L48.0354 81.585C47.6158 78.8996 46.3738 72.2198 44.7626 66.9834L23.3638 69.5009C23.196 69.8366 22.7596 72.6226 22.3568 81.0815L18.077 84.1025H10.5245L7 82.3402ZM27.3936 57.1643L39.2259 50.6188L34.4426 38.7865C33.3517 41.1362 30.4146 48.1013 27.3936 57.1643Z" fill="white"/>
<path d="M75.2539 25.301H74V84.7228H75.2539V25.301Z" fill="white"/>
<path d="M103.817 24.8819H106.395L115.66 48.2187H113.291L110.783 41.9491H99.0105L96.5026 48.2187H94.2734L103.817 24.8819ZM105.001 27.0414L99.9161 39.9289H110.017L105.001 27.0414Z" fill="white"/>
<path d="M135.724 39.9988C135.724 41.7403 135.445 43.1336 134.888 44.2481C134.331 45.3627 133.634 46.2684 132.798 46.8953C131.962 47.5223 131.057 47.9402 130.012 48.2189C129.037 48.4975 128.131 48.5672 127.225 48.5672C126.389 48.5672 125.484 48.4279 124.439 48.2189C123.464 47.9402 122.558 47.5223 121.652 46.8953C120.816 46.2684 120.12 45.3627 119.563 44.2481C119.005 43.1336 118.727 41.7403 118.727 39.9988V24.8124H121.025V39.9988C121.025 40.974 121.165 41.81 121.443 42.6459C121.722 43.4819 122.07 44.1088 122.628 44.7358C123.185 45.2931 123.812 45.7807 124.578 46.0594C125.344 46.4077 126.25 46.547 127.225 46.547C128.201 46.547 129.106 46.4077 129.873 46.0594C130.639 45.711 131.266 45.2931 131.823 44.7358C132.38 44.1785 132.729 43.4819 133.007 42.6459C133.286 41.81 133.425 40.974 133.425 39.9988V24.8124H135.724V39.9988V39.9988Z" fill="white"/>
<path d="M145.613 26.8326H138.717V24.8124H154.809V26.8326H147.912V48.1492H145.613V26.8326V26.8326Z" fill="white"/>
<path d="M157.529 31.9874C157.947 30.5245 158.574 29.2706 159.41 28.156C160.245 27.0414 161.29 26.1358 162.614 25.5088C163.938 24.8122 165.4 24.5336 167.212 24.5336C168.953 24.5336 170.486 24.8819 171.809 25.5088C173.133 26.2055 174.178 27.0414 175.014 28.156C175.85 29.2706 176.477 30.5245 176.895 31.9874C177.313 33.4503 177.522 34.9829 177.452 36.5155C177.452 38.3267 177.173 39.9289 176.755 41.3918C176.337 42.8547 175.641 44.1086 174.805 45.2232C173.969 46.2682 172.854 47.1041 171.6 47.6614C170.347 48.2187 168.814 48.567 167.142 48.567C165.47 48.567 164.007 48.2884 162.684 47.6614C161.43 47.1041 160.315 46.2682 159.479 45.2232C158.643 44.1783 157.947 42.9244 157.529 41.3918C157.111 39.9289 156.832 38.257 156.832 36.5155C156.902 34.9132 157.111 33.3807 157.529 31.9874ZM163.589 27.3201C162.614 27.8774 161.778 28.6436 161.151 29.6189C160.524 30.5942 160.036 31.6391 159.688 32.893C159.41 34.0773 159.201 35.3312 159.201 36.5155C159.201 37.7694 159.34 38.9536 159.688 40.2076C159.967 41.3918 160.454 42.5064 161.151 43.412C161.778 44.3873 162.614 45.1536 163.589 45.7109C164.565 46.2682 165.749 46.5468 167.142 46.5468C168.535 46.5468 169.65 46.2682 170.695 45.7109C171.67 45.1536 172.506 44.3873 173.203 43.412C173.83 42.4368 174.317 41.3918 174.666 40.2076C174.944 39.0233 175.153 37.7694 175.153 36.5155C175.153 35.2615 175.014 34.0773 174.666 32.893C174.387 31.7088 173.899 30.5942 173.203 29.6189C172.576 28.6436 171.74 27.8774 170.695 27.3201C169.72 26.7628 168.535 26.4841 167.142 26.4841C165.818 26.4841 164.634 26.7628 163.589 27.3201Z" fill="white"/>
<path d="M181.91 24.8819H187.691C189.781 24.8819 191.593 25.1605 193.055 25.7178C194.518 26.2751 195.703 27.111 196.678 28.156C197.584 29.2009 198.28 30.4548 198.698 31.8481C199.116 33.2413 199.325 34.8435 199.325 36.5154C199.325 38.6053 198.977 40.4165 198.35 41.8794C197.653 43.3423 196.748 44.5963 195.563 45.5019C194.379 46.4075 192.986 47.1041 191.314 47.5221C189.712 47.94 187.9 48.149 185.95 48.149H181.84V24.8819H181.91ZM184.208 46.1288H186.089C187.761 46.1288 189.224 45.9198 190.617 45.5715C191.941 45.2232 193.125 44.6659 194.031 43.8996C195.006 43.1333 195.703 42.0884 196.26 40.8345C196.817 39.5806 197.026 38.048 197.026 36.3064C197.026 34.4952 196.748 33.0323 196.26 31.7784C195.772 30.5941 195.076 29.6189 194.24 28.8526C193.404 28.0863 192.359 27.5987 191.244 27.2504C190.06 26.9021 188.876 26.7627 187.552 26.7627H184.208V46.1288V46.1288Z" fill="white"/>
<path d="M204.406 24.8819H215.831V26.9021H206.705V35.1919H215.343V37.2121H206.705V46.1288H216.249V48.149H204.406V24.8819V24.8819Z" fill="white"/>
<path d="M220.434 45.2234C221.131 45.6414 221.897 45.9897 222.733 46.2684C223.569 46.4774 224.544 46.6167 225.589 46.6167C226.286 46.6167 226.983 46.547 227.609 46.338C228.236 46.1291 228.794 45.8504 229.281 45.5021C229.769 45.0841 230.117 44.5965 230.396 44.0392C230.675 43.4122 230.814 42.7156 230.814 41.8797C230.814 41.1134 230.535 40.4864 230.048 39.8595C229.49 39.3022 228.863 38.7449 228.027 38.2572C227.191 37.7696 226.356 37.282 225.45 36.7943C224.544 36.3067 223.708 35.8191 222.872 35.1921C222.036 34.6348 221.41 33.9382 220.852 33.2415C220.295 32.4753 220.086 31.6393 220.086 30.5944C220.086 29.6888 220.295 28.8528 220.643 28.0866C220.992 27.3203 221.549 26.6933 222.245 26.136C222.942 25.5787 223.708 25.1607 224.614 24.8821C225.52 24.6034 226.495 24.4641 227.47 24.4641C228.027 24.4641 228.724 24.5338 229.56 24.6034C230.396 24.6731 231.232 24.8821 231.998 25.2304L231.65 27.3203C231.162 27.0416 230.466 26.8326 229.699 26.6933C228.933 26.554 228.167 26.4843 227.4 26.4843C226.774 26.4843 226.216 26.554 225.589 26.6933C224.962 26.8326 224.475 27.0416 223.987 27.3899C223.499 27.6686 223.151 28.0865 222.803 28.6438C222.524 29.1315 222.385 29.7584 222.385 30.5247C222.385 31.291 222.663 31.9876 223.151 32.5449C223.708 33.1022 224.335 33.5899 225.171 34.0775C226.007 34.5651 226.843 35.0528 227.749 35.4707C228.654 35.9584 229.49 36.446 230.326 37.073C231.162 37.6999 231.789 38.3966 232.346 39.1628C232.904 39.9291 233.113 40.9044 233.113 42.019C233.113 43.2032 232.904 44.1785 232.416 45.0145C231.929 45.8504 231.371 46.547 230.605 47.0347C229.839 47.592 229.072 47.9403 228.167 48.2189C227.261 48.4976 226.356 48.5672 225.45 48.5672C224.335 48.5672 223.29 48.4976 222.454 48.2886C221.549 48.0796 220.852 47.8706 220.225 47.592L220.434 45.2234Z" fill="white"/>
<path d="M238.133 24.8819H240.432V35.3312L250.951 24.8819H253.946L242.661 35.8885L254.921 48.2187H251.717L240.432 36.5851V48.2187H238.133V24.8819V24.8819Z" fill="white"/>
<path d="M104.302 60.9657H107.854L117.816 84.5812H114.124L111.755 78.66H100.261L97.8926 84.5812H94.3398L104.302 60.9657ZM105.904 64.1702L101.236 75.8735H110.571L105.904 64.1702Z" fill="white"/>
<path d="M139.412 74.8283C139.412 78.1721 138.645 80.6799 137.043 82.4215C135.441 84.1631 133.212 84.999 130.286 84.999C127.36 84.999 125.131 84.1631 123.529 82.4215C121.926 80.6799 121.16 78.1721 121.16 74.8283V61.0352H124.504V74.4103C124.504 75.5249 124.574 76.5699 124.783 77.4755C124.992 78.3811 125.27 79.217 125.758 79.9137C126.176 80.6103 126.803 81.0979 127.569 81.5159C128.335 81.8642 129.241 82.0732 130.286 82.0732C131.331 82.0732 132.306 81.8642 133.003 81.5159C133.769 81.1676 134.326 80.6103 134.814 79.9137C135.232 79.217 135.58 78.4508 135.789 77.4755C135.998 76.5699 136.068 75.5249 136.068 74.4103V61.0352H139.412V74.8283V74.8283Z" fill="white"/>
<path d="M150.141 63.9612H142.826V60.9657H160.799V63.9612H153.484V84.5812H150.141V63.9612Z" fill="white"/>
<path d="M163.725 67.932C164.212 66.4691 164.979 65.1455 165.954 64.1006C166.929 62.986 168.113 62.15 169.507 61.5231C170.9 60.8961 172.502 60.6175 174.313 60.6175C176.055 60.6175 177.657 60.8961 179.05 61.5231C180.444 62.15 181.628 62.986 182.603 64.1006C183.578 65.2152 184.345 66.4691 184.832 67.932C185.32 69.3949 185.599 71.0668 185.599 72.8083C185.599 74.6196 185.32 76.2218 184.832 77.7544C184.345 79.2173 183.578 80.5409 182.603 81.5858C181.628 82.7004 180.444 83.5363 179.05 84.0936C177.657 84.7206 176.055 84.9992 174.244 84.9992C172.432 84.9992 170.83 84.7206 169.437 84.0936C168.044 83.4667 166.859 82.6307 165.884 81.5858C164.909 80.4712 164.212 79.2173 163.655 77.7544C163.167 76.2915 162.889 74.6196 162.889 72.8083C162.958 71.0668 163.237 69.3949 163.725 67.932ZM166.999 76.2218C167.277 77.3364 167.765 78.3117 168.392 79.1476C169.019 79.9836 169.855 80.6802 170.83 81.2375C171.805 81.7251 172.99 82.0038 174.313 82.0038C175.637 82.0038 176.821 81.7251 177.796 81.2375C178.772 80.7498 179.608 80.0532 180.235 79.1476C180.862 78.3117 181.349 77.2667 181.628 76.2218C181.906 75.1072 182.115 73.9926 182.115 72.8083C182.115 71.6241 181.976 70.4398 181.628 69.3252C181.279 68.2106 180.792 67.2354 180.165 66.3994C179.538 65.5635 178.702 64.8669 177.727 64.3792C176.751 63.8916 175.637 63.6129 174.313 63.6129C172.99 63.6129 171.875 63.8916 170.9 64.3792C169.925 64.8669 169.158 65.5635 168.462 66.3994C167.835 67.2354 167.347 68.2106 166.999 69.3252C166.65 70.4398 166.511 71.6241 166.511 72.8083C166.511 73.9926 166.72 75.1072 166.999 76.2218Z" fill="white"/>
<path d="M206.634 64.8667C205.171 63.961 203.569 63.5431 201.757 63.5431C200.434 63.5431 199.18 63.7521 198.065 64.2397C196.951 64.7273 195.975 65.3543 195.209 66.1902C194.443 67.0262 193.816 68.0015 193.398 69.116C192.98 70.2306 192.771 71.4846 192.771 72.8081C192.771 74.2014 192.98 75.4553 193.468 76.5699C193.955 77.6845 194.582 78.6598 195.348 79.4957C196.184 80.3317 197.09 80.9586 198.205 81.3766C199.249 81.7946 200.434 82.0036 201.618 82.0036C202.036 82.0036 202.524 82.0035 202.942 81.9339C203.429 81.8642 203.847 81.7946 204.335 81.7249C204.822 81.6552 205.24 81.5159 205.658 81.3766C206.076 81.2373 206.425 81.0979 206.703 80.889L206.912 84.1631C206.007 84.5811 205.101 84.79 204.056 84.8597C203.081 84.9294 202.245 84.999 201.548 84.999C199.667 84.999 197.996 84.7204 196.463 84.1631C194.93 83.6058 193.607 82.7698 192.562 81.7249C191.517 80.68 190.681 79.3564 190.054 77.8238C189.427 76.2913 189.148 74.6194 189.148 72.7385C189.148 70.9273 189.427 69.2554 190.054 67.7925C190.681 66.3296 191.517 65.006 192.632 63.9611C193.746 62.9161 195.07 62.0802 196.602 61.5229C198.135 60.9656 199.807 60.6869 201.548 60.6869C202.454 60.6869 203.36 60.7566 204.265 60.8959C205.171 61.0352 206.007 61.3139 206.843 61.6622L206.634 64.8667Z" fill="white"/>
<path d="M218.41 60.9657H221.963L231.925 84.5812H228.233L225.864 78.66H214.3L211.932 84.5812H208.379L218.41 60.9657ZM220.012 64.1702L215.345 75.8735H224.75L220.012 64.1702Z" fill="white"/>
<path d="M235.055 60.9657H242.022C243.763 60.9657 245.435 61.2444 246.898 61.732C248.43 62.2893 249.754 63.0556 250.869 64.0309C251.983 65.0062 252.889 66.2601 253.516 67.6533C254.143 69.1162 254.491 70.7185 254.491 72.5297C254.491 74.4802 254.212 76.2218 253.585 77.7543C253.028 79.2869 252.192 80.4712 251.078 81.5161C250.033 82.4914 248.709 83.2577 247.107 83.815C245.574 84.3026 243.833 84.5812 241.882 84.5812H234.916V60.9657H235.055ZM238.399 81.5858H241.952C244.878 81.5858 247.037 80.8891 248.639 79.4262C250.172 77.9633 250.938 75.7341 250.938 72.669C250.938 71.2758 250.729 70.0915 250.311 68.9769C249.893 67.8623 249.266 66.9567 248.5 66.1904C247.734 65.4241 246.828 64.8668 245.783 64.4489C244.738 64.0309 243.624 63.8916 242.37 63.8916H238.399V81.5858V81.5858Z" fill="white"/>
<path d="M260.218 28.7156L259.591 27.2527H258.686V28.7156H258.268V25.3718H259.521C259.661 25.3718 259.8 25.3718 259.939 25.4415C260.079 25.4415 260.218 25.5111 260.288 25.5808C260.427 25.6504 260.497 25.7898 260.566 25.9291C260.636 26.0684 260.636 26.2077 260.636 26.3471C260.636 26.5561 260.566 26.6954 260.497 26.9044C260.357 27.0437 260.218 27.183 260.009 27.2527L260.636 28.7852H260.218V28.7156ZM259.452 26.9044C259.591 26.9044 259.661 26.9044 259.73 26.9044C259.8 26.9044 259.939 26.8347 260.009 26.765C260.079 26.6954 260.079 26.6257 260.148 26.5561C260.148 26.4864 260.218 26.4167 260.218 26.3471C260.218 26.2774 260.218 26.1381 260.148 26.0684C260.079 25.9988 260.079 25.9291 259.939 25.8594C259.87 25.7898 259.8 25.7898 259.73 25.7898C259.661 25.7898 259.591 25.7898 259.521 25.7898H258.686V26.974H259.452V26.9044Z" fill="white"/>
<path d="M259.374 30.1767C257.703 30.1767 256.379 28.8531 256.379 27.1812C256.379 25.5093 257.703 24.1857 259.374 24.1857C261.046 24.1857 262.37 25.5093 262.37 27.1812C262.37 28.8531 261.046 30.1767 259.374 30.1767ZM259.374 24.6733C257.981 24.6733 256.867 25.7879 256.867 27.1812C256.867 28.5744 257.981 29.689 259.374 29.689C260.768 29.689 261.882 28.5744 261.882 27.1812C261.882 25.7879 260.768 24.6733 259.374 24.6733Z" fill="white"/>
<path d="M259.589 64.7992L258.962 63.3363H258.057V64.7992H257.639V61.4554H258.893C259.032 61.4554 259.171 61.4554 259.311 61.5251C259.45 61.5251 259.589 61.5947 259.659 61.6644C259.798 61.7341 259.868 61.8734 259.938 62.0127C260.007 62.152 260.007 62.2914 260.007 62.4307C260.007 62.6397 259.938 62.779 259.868 62.988C259.729 63.1273 259.589 63.2667 259.38 63.3363L260.007 64.8689H259.589V64.7992ZM258.823 62.988C258.962 62.988 259.032 62.988 259.102 62.988C259.171 62.988 259.311 62.9183 259.38 62.8487C259.45 62.779 259.45 62.7094 259.52 62.6397C259.52 62.57 259.589 62.5004 259.589 62.4307C259.589 62.361 259.589 62.2217 259.52 62.1521C259.45 62.0824 259.45 62.0127 259.311 61.9431C259.241 61.8734 259.171 61.8734 259.102 61.8734C259.032 61.8734 258.962 61.8734 258.893 61.8734H258.057V63.0577H258.823V62.988Z" fill="white"/>
<path d="M258.753 66.2616C257.081 66.2616 255.758 64.938 255.758 63.2661C255.758 61.5943 257.081 60.2707 258.753 60.2707C260.425 60.2707 261.749 61.5943 261.749 63.2661C261.749 64.938 260.425 66.2616 258.753 66.2616ZM258.753 60.7583C257.36 60.7583 256.245 61.8729 256.245 63.2661C256.245 64.6594 257.36 65.774 258.753 65.774C260.147 65.774 261.261 64.6594 261.261 63.2661C261.261 61.8729 260.147 60.7583 258.753 60.7583Z" fill="white"/>
</svg>
