<svg width="270" height="115" viewBox="0 0 270 115" fill="none" xmlns="http://www.w3.org/2000/svg">
<path d="M235.899 18.0004C231.875 18.0004 228.975 21.1963 228.975 24.7472C228.975 28.2981 231.875 31.4939 235.899 31.4939C239.865 31.4939 243.001 28.594 243.001 24.7472C243.001 20.9003 239.924 18.0004 235.899 18.0004ZM136.651 38.1815C123.927 38.1815 113.807 46.9997 113.807 60.2564C113.807 73.4541 123.986 82.3314 136.651 82.3314C142.451 82.3314 147.896 80.5559 152.453 76.1172L145.824 69.4889C143.339 72.0929 140.202 73.9275 135.645 73.9275C129.786 73.9275 125.051 70.1399 124.341 63.9257H156.418V61.0258C156.359 46.4078 148.428 38.1815 136.651 38.1815ZM177.427 38.1815C168.905 38.1815 160.501 42.3835 160.501 51.7342C160.501 67.7726 183.168 60.9074 183.168 69.6072C183.168 72.9214 179.203 74.401 176.185 74.401C171.746 74.401 168.905 72.2112 166.242 69.2521L159.436 76.0581C163.697 80.6743 169.201 82.3314 175.593 82.3314C184.174 82.3314 193.703 78.8396 193.703 68.8379C193.703 52.4444 171.036 58.5993 171.036 51.0832C171.036 47.9466 174.35 46.5854 177.191 46.5854C180.742 46.5854 183.405 48.0649 185.417 50.8465L192.105 44.1589C188.613 39.8386 182.872 38.1815 177.427 38.1815ZM221.696 38.1815C216.192 38.1815 211.516 41.0814 209.267 45.8752H209.09V39.2468H198.555V81.2661H209.09V58.7769C209.09 56.528 210.51 48.1833 220.394 48.1833C221.932 48.1833 223.412 48.4792 225.01 48.8343L225.424 38.7733C224.181 38.4182 222.998 38.1815 221.696 38.1815ZM230.75 39.2468V81.2661H241.285V39.2468H230.75ZM135.171 46.0527C141.741 46.0527 145.765 49.8996 145.883 56.0545H124.341C125.11 50.0179 128.957 46.0527 135.171 46.0527Z" fill="white"/>
<path d="M51.2516 33.9206C48.7659 34.039 46.3394 34.3349 43.913 34.69C37.107 40.4307 32.7276 48.9529 32.4316 58.4812C34.3255 60.4934 36.8703 65.0504 39.8294 67.7136C40.2437 67.5361 40.658 67.4177 41.0722 67.2402C39.6519 65.5831 37.6397 63.3933 37.3438 62.328C35.8642 57.3568 37.5805 52.6814 41.2498 52.3263C44.564 51.9712 47.4047 47.0591 49.7128 43.804C54.5066 37.1756 61.9043 38.2409 61.5492 34.9267C61.135 32.9737 59.9513 32.3819 58.531 32.3819C56.3412 32.5003 53.4413 33.8023 51.2516 33.9206Z" fill="white"/>
<path d="M42.4935 66.8851C42.02 67.0035 41.5466 67.1219 41.0731 67.2994C40.6588 67.4178 40.3629 67.5361 39.8303 67.7729C38.6466 68.3055 37.7589 69.1341 37.5814 70.8503C37.2263 73.987 40.2446 76.4726 42.7302 77.242C45.926 78.1889 46.222 77.0645 47.8791 79.3726C49.0627 80.9705 49.2994 83.9296 49.8912 85.8826C50.2463 86.9479 50.6606 88.0723 51.2524 89.1376C53.5605 90.2029 55.987 91.0314 58.5318 91.5049C59.1828 87.7764 58.8869 82.6868 59.7155 80.497C61.4318 75.9992 62.3787 74.0462 60.0706 69.43C54.9809 68.0096 53.383 67.5361 48.2341 66.4709C47.1689 66.2341 46.5179 66.175 45.926 66.175C45.0975 66.1158 44.3281 66.3525 42.4935 66.8851Z" fill="white"/>
<path d="M74.1588 40.9634C72.6793 43.094 67.3529 43.6858 65.6366 46.1123C64.3346 48.0061 65.6958 51.7346 64.5122 53.8651C63.9795 54.8712 64.2162 57.712 64.8672 58.6589C66.8794 61.618 70.312 59.9609 72.8568 61.0262C75.9343 62.3282 76.3486 65.9383 78.8934 68.5423C81.4974 71.2055 75.5792 75.2299 80.373 84.8765C80.9056 85.8826 81.4974 86.652 82.1484 87.1846C85.4034 85.1725 88.2442 82.5684 90.6115 79.6093C91.3217 74.7564 89.7237 73.2177 91.7359 68.779C92.9787 66.0566 95.1685 61.3221 97.4766 58.067C97.0623 49.0714 93.0379 41.0226 86.8238 35.4003C86.232 35.5778 85.5218 35.5778 84.4565 35.4003C83.5688 35.2228 82.7994 35.1636 82.0892 35.1636C77.2955 35.1636 75.8751 38.4778 74.1588 40.9634Z" fill="white"/>
<path d="M61.2532 94.1081C60.188 93.5162 58.8268 92.5101 57.5839 91.6816C57.0513 92.1551 56.637 92.8061 56.2228 93.3979C57.6431 93.8713 59.5961 93.8713 61.2532 94.1081ZM55.5718 90.202C53.2637 88.4858 47.523 83.041 45.1557 79.786C44.268 80.3186 43.3211 81.6798 42.0782 81.9165C41.6048 82.0349 40.4803 82.1533 40.1252 82.0349C39.7701 81.9165 40.1844 81.2064 40.5395 80.7329C41.1313 79.9044 42.0782 78.8983 43.3802 77.833C40.5395 73.6902 39.2375 70.6719 37.2845 65.7007C36.16 66.4108 35.3907 67.0027 34.3846 67.772C34.0886 68.0088 33.1417 68.1863 32.7275 67.772C31.9581 67.0618 31.8989 65.819 33.0234 65.0496C33.4968 64.6946 35.7457 63.1558 36.2784 62.7415C34.9172 58.7763 33.7336 53.5091 33.4376 50.7867C32.4907 51.6153 31.1887 52.503 30.8336 52.7398C30.301 52.9173 29.9459 52.7398 29.8275 52.6806C29.2949 58.3029 29.8867 64.5762 31.603 70.1393C34.5029 79.786 42.6109 89.0184 53.5004 92.451C53.7963 92.155 55.0391 90.6755 55.5718 90.202ZM33.1417 47.8868C33.0234 45.8155 32.8458 42.9155 32.8458 42.9155C31.3071 46.2297 30.4194 48.2419 29.9459 52.1479C31.0704 50.3133 33.1417 47.8868 33.1417 47.8868ZM49.5352 24.0364C55.8677 21.4324 62.0818 19.9529 69.1836 20.959C69.953 21.0773 69.8938 21.7283 69.0653 21.7283H68.0592C62.3185 21.8467 53.8555 23.6222 49.476 26.1078C49.3576 29.0077 49.9495 33.6831 50.5413 37.2932C54.5065 35.6361 60.6614 33.9199 65.3368 33.3872C62.6736 30.5465 59.0635 27.8833 58.6492 27.5874C58.235 27.2915 57.9982 26.7588 57.9982 26.0486C58.0574 24.8058 59.1227 24.6283 59.7145 24.7466C61.6675 24.3915 63.5613 23.9773 66.8755 24.0364C80.7833 23.4446 93.4483 31.3158 98.3012 40.2523C110.552 59.6641 98.3012 86.4144 82.2629 93.5754C75.3978 96.6529 69.4796 97.9549 58.6492 96.4162C47.7597 94.8774 38.8824 89.551 31.9581 78.3656C23.4359 64.5762 28.2296 48.5378 29.4133 45.1644C34.5621 33.2097 42.966 26.818 49.5352 24.0364ZM35.1539 38.7136C34.9764 40.1932 35.1539 42.8563 35.509 46.0522C38.4681 43.389 44.1496 39.9564 48.9434 37.8259C48.4107 34.2158 47.8189 28.4159 47.8781 26.818C43.4394 29.2445 38.6457 34.0974 35.0947 39.1279L35.1539 38.7136ZM35.8049 48.9521C36.2192 51.852 37.5804 58.0662 38.8232 61.2028C41.7823 58.9539 48.4699 54.8703 52.2576 53.154C50.9555 48.3011 50.0678 45.2828 49.2985 40.4299C44.0312 42.8563 38.3498 46.5256 35.8049 48.9521ZM40.0069 63.9844C41.7823 69.0148 43.4394 72.8025 45.6883 75.9391C48.2924 73.6902 53.6187 70.1393 57.6431 68.1863C56.2819 65.2864 54.3881 59.9008 53.0269 55.8764C47.8189 58.5396 43.9129 61.0252 40.0069 63.9844ZM47.3454 78.1881C50.127 81.739 54.3881 86.1777 57.4064 88.6633C60.2471 86.3552 63.443 84.2246 66.1654 82.9226C63.8572 79.3125 60.4247 74.1637 59.0043 70.9087C53.8555 73.2168 50.9556 75.1106 47.3454 78.1881ZM59.1819 90.202C60.2471 91.3265 64.6266 94.1672 64.6266 94.1672C67.5265 94.2856 71.1366 93.9305 73.7407 93.5162C72.3203 91.8591 68.7102 86.8287 67.6449 85.1124C64.8633 86.296 61.3716 88.4266 59.1819 90.202ZM76.759 92.8061C78.2385 92.3326 81.967 90.6755 82.7363 90.1429C82.9139 87.1246 82.9139 83.7512 82.7955 81.6798C78.8895 81.6798 73.3856 82.8043 70.2489 84.1655C72.0244 87.1246 74.51 90.3204 76.759 92.8061ZM84.8077 89.0184C87.7668 87.1838 90.4892 85.0532 92.5014 82.5676C90.7851 82.1533 86.9383 81.6206 85.0444 81.739C84.9853 81.739 84.9261 86.296 84.8077 89.0184ZM93.3891 81.3839C93.9218 80.8513 94.7503 79.6676 95.1054 78.9574C95.4013 76.1759 95.4605 70.4944 95.3421 68.8373C91.9688 67.4761 86.8199 66.4108 83.0323 66.1149C84.2751 70.6128 84.8669 77.3003 84.9853 79.4309C86.7607 79.6084 91.3177 80.5554 93.3891 81.3839ZM98.3012 68.4822C98.1237 69.0148 97.236 69.5475 96.7625 69.4291C96.8217 70.376 96.585 74.9922 96.3482 76.8269C96.9992 75.5249 98.2421 72.2107 98.5971 70.8495L99.1298 68.7781C99.6624 67.0618 101.32 61.0253 99.7808 53.154C98.0645 44.3951 94.9279 41.2584 93.8034 39.8972C90.9627 38.3585 86.7015 36.9973 86.7015 36.9973C90.5484 42.2053 91.9096 44.691 94.2177 50.9051C95.5789 51.6153 98.0053 52.9765 98.3012 53.3316C98.538 53.6275 98.538 54.1601 97.7686 54.1601C97.1176 54.1601 95.8748 53.5683 94.9279 53.2724C95.934 56.6458 96.7033 62.9783 96.6441 67.2394C96.8217 67.121 98.4788 67.9496 98.3012 68.4822ZM91.8504 36.879C86.4648 30.3097 74.3917 24.7466 60.8981 25.5752C63.9164 27.5874 66.4021 30.5465 68.651 33.0321C72.0244 32.7362 79.1262 33.2688 81.7894 34.0382C81.316 33.5056 80.7833 32.9729 80.665 32.677C80.3099 31.8485 81.1976 31.6709 81.9078 32.1444C82.8547 32.7362 83.92 33.4464 84.7485 34.2749C86.2281 34.63 90.0749 35.932 91.8504 36.879ZM95.2829 66.47C95.0462 62.2089 94.3952 56.5866 92.8565 52.6806C88.7137 51.0235 83.0323 49.9582 78.061 49.899C79.5997 53.5091 81.3752 59.4865 82.2629 63.3334C85.8138 63.7476 91.4361 64.8129 95.2829 66.47ZM83.6241 36.2279C79.8956 35.5769 74.3917 35.1035 70.3081 35.3402C73.0897 39.1871 75.1019 42.5013 76.9957 47.295C82.1445 47.4134 89.128 48.9521 91.9688 50.0766C90.3117 45.5195 87.0566 39.7197 83.6241 36.2279ZM60.0696 67.121C66.1654 64.2803 72.9121 63.0374 79.7181 63.215C77.8834 56.8233 76.8181 53.8642 75.2202 49.9582C67.7041 50.3133 61.2532 52.1479 55.4534 54.9295C55.3942 54.8703 57.5839 61.7946 60.0696 67.121ZM80.3691 65.8782C72.6754 65.7598 65.9878 67.5945 61.4308 69.8434C63.3838 74.0453 67.1714 79.5493 68.651 81.7982C71.1366 80.8513 73.7998 80.2003 75.8712 79.8452C77.9426 79.5493 80.7242 79.1942 82.618 79.2534C82.2629 74.4596 81.7302 71.2046 80.3691 65.8782ZM54.5657 52.2663C60.1288 49.899 66.1062 48.0052 74.2141 47.3542C72.1427 42.3829 69.8938 38.8911 67.1714 35.6953C61.1941 36.1688 55.7493 37.7667 51.0147 39.7197C51.7249 43.389 53.0269 47.8276 54.5657 52.2663Z" fill="white"/>
</svg>
